<?xml version="1.0" encoding="UTF-8" standalone="no"?>
<!-- Created with Inkscape (http://www.inkscape.org/) -->

<svg
   version="1.1"
   id="svg2"
   width="1000"
   height="666.66669"
   viewBox="0 0 1000 666.66669"
   sodipodi:docname="5719321.ai"
   xmlns:inkscape="http://www.inkscape.org/namespaces/inkscape"
   xmlns:sodipodi="http://sodipodi.sourceforge.net/DTD/sodipodi-0.dtd"
   xmlns="http://www.w3.org/2000/svg"
   xmlns:svg="http://www.w3.org/2000/svg">
  <defs
     id="defs6">
    <clipPath
       clipPathUnits="userSpaceOnUse"
       id="clipPath20">
      <path
         d="M 0,0 H 750 V 500 H 0 Z"
         id="path18" />
    </clipPath>
  </defs>
  <!-- <sodipodi:namedview
     id="namedview4"
     pagecolor="#ffffff"
     bordercolor="#000000"
     borderopacity="0.25"
     inkscape:showpageshadow="2"
     inkscape:pageopacity="0.0"
     inkscape:pagecheckerboard="0"
     inkscape:deskcolor="#d1d1d1" /> -->
  <g
     id="g8"
     inkscape:groupmode="layer"
     inkscape:label="5719321"
     transform="matrix(1.3333333,0,0,-1.3333333,0,666.66667)">
    <path
       d="M 0,0 H 750 V 500 H 0 Z"
       style="fill:#ffffff;fill-opacity:1;fill-rule:nonzero;stroke:none"
       id="path10" />
    <path
       d="M 0,0 H 750 V 500 H 0 Z"
       style="fill:#ffffff;fill-opacity:1;fill-rule:nonzero;stroke:none"
       id="path12" />
    <g
       id="g14">
      <g
         id="g16"
         clip-path="url(#clipPath20)">
        <g
           id="g22"
           transform="translate(-18.0228,365.3391)">
          <path
             d="m 0,0 c 0,0 23.336,-56.573 96.881,-36.065 73.545,20.507 31.823,75.666 79.91,84.152 48.087,8.486 60.109,-31.822 125.168,-3.536 65.059,28.287 47.38,108.196 47.38,108.196 l -341.56,2.829 z"
             style="fill:#a3d9ea;fill-opacity:1;fill-rule:nonzero;stroke:none"
             id="path24" />
        </g>
        <g
           id="g26"
           transform="translate(423.2477,515.2575)">
          <path
             d="m 0,0 c -4.95,-12.021 -3.536,-30.408 12.729,-36.065 16.264,-5.658 33.944,12.729 53.744,4.95 19.8,-7.779 -8.486,-57.281 44.551,-75.667 53.038,-18.386 87.689,13.437 99.71,9.194 12.022,-4.244 -10.607,-63.645 70.717,-85.567 81.323,-21.922 108.195,50.916 108.195,50.916 L 354.288,43.137 Z"
             style="fill:#a3d9ea;fill-opacity:1;fill-rule:nonzero;stroke:none"
             id="path28" />
        </g>
        <g
           id="g30"
           transform="translate(-17.3158,-0.265)">
          <path
             d="m 0,0 c 0,0 2.122,57.28 38.894,65.06 36.773,7.778 48.794,-21.922 77.788,-15.558 28.994,6.364 22.63,70.009 92.639,86.981 70.009,16.972 94.76,-73.545 125.168,-81.324 30.407,-7.779 38.186,106.074 148.504,108.196 110.318,2.122 102.538,-76.374 125.168,-79.203 22.629,-2.828 47.38,40.309 100.417,16.266 53.037,-24.044 70.009,-122.34 70.009,-122.34 l -787.78,8.486 z"
             style="fill:#a3d9ea;fill-opacity:1;fill-rule:nonzero;stroke:none"
             id="path32" />
        </g>
        <g
           id="g34"
           transform="translate(503.8951,92.7272)">
          <path
             d="m 0,0 c 0.12,0.37 -0.08,0.891 -0.59,0.95 -26.28,3.1 -52.94,4 -79.36,2.571 -0.04,0.109 -0.11,0.219 -0.26,0.279 -2.29,0.94 -3.479,2.6 -3.57,4.99 -0.22,1.69 0.49,2.9 2.131,3.63 2.83,2.551 5.519,2.45 8.799,0.2 0.58,-0.39 1.14,0.36 0.89,0.891 -4.08,8.479 -2.51,21 8.65,22.59 11.11,1.58 17.72,-8.411 18.71,-18.191 0.07,-0.74 1.21,-0.76 1.161,0 -0.011,0.16 -0.021,0.33 -0.04,0.49 3.639,10.56 9.259,23.79 22.5,23.59 7.319,-0.12 12.099,-6.46 12.199,-13.429 0.091,-6.411 -3.21,-11.92 -6.659,-17.071 -0.481,-0.71 0.649,-1.34 1.139,-0.66 0.01,0.01 0.02,0.03 0.03,0.04 0.07,-0.189 0.291,-0.34 0.53,-0.2 C -6.2,15.13 2.82,8.42 0.2,-0.06 Z"
             style="fill:#ffffff;fill-opacity:1;fill-rule:nonzero;stroke:none"
             id="path36" />
        </g>
        <g
           id="g38"
           transform="translate(419.5553,104.8376)">
          <path
             d="M 0,0 C 2.06,3.939 6.87,4.18 10.51,2.54 7.23,11.42 9.33,23.07 20.06,25.16 31.1,27.31 39.01,18.15 40.63,8.21 44.18,19.689 52.04,34 66.23,30.87 72.35,29.52 76.11,24.14 76.8,18.11 77.57,11.29 74.4,4.83 70.54,-0.59 78.75,4.55 88.6,-3.32 85.76,-12.561 85.521,-13.34 84.29,-13 84.53,-12.22 c 0.01,0.02 0.01,0.03 0.01,0.05 2.62,8.48 -6.4,15.19 -13.94,10.73 -0.24,-0.14 -0.46,0.01 -0.53,0.2 -0.01,-0.01 -0.02,-0.031 -0.03,-0.04 -0.49,-0.68 -1.62,-0.05 -1.14,0.66 3.45,5.15 6.75,10.66 6.66,17.07 -0.1,6.97 -4.88,13.31 -12.2,13.43 C 50.12,30.08 44.5,16.85 40.86,6.29 40.88,6.13 40.89,5.96 40.9,5.8 40.95,5.04 39.81,5.06 39.74,5.8 38.75,15.58 32.14,25.57 21.03,23.99 9.87,22.4 8.3,9.88 12.38,1.4 12.63,0.87 12.07,0.12 11.49,0.51 8.21,2.76 5.521,2.86 2.69,0.31 1.05,-0.42 0.34,-1.63 0.56,-3.32 0.65,-5.71 1.84,-7.37 4.13,-8.311 4.28,-8.37 4.35,-8.48 4.39,-8.59 c 26.42,1.43 53.08,0.529 79.36,-2.57 0.51,-0.06 0.71,-0.58 0.59,-0.95 -0.069,-0.22 -0.27,-0.38 -0.59,-0.35 C 57.21,-9.69 30.69,-8.69 4.01,-9.34 3.78,-9.35 3.67,-9.19 3.66,-9.01 -0.05,-7.95 -1.81,-3.47 0,0"
             style="fill:#1d1d1b;fill-opacity:1;fill-rule:nonzero;stroke:none"
             id="path40" />
        </g>
        <g
           id="g42"
           transform="translate(536.6041,456.8737)">
          <path
             d="m 0,0 c 0.62,-1.53 0.06,-3.12 -1.08,-4.18 -0.101,0.18 -0.28,0.3 -0.55,0.29 -22.28,-1.14 -44.56,-2.17 -66.86,-2.94 0,0 0,0.01 -0.01,0.01 -3.341,1.53 -4.801,6.24 -2.311,9.19 2.84,3.37 8,2.15 10.55,-0.85 0.24,-0.29 0.681,-0.05 0.71,0.26 0.091,0.11 0.111,0.27 -0.01,0.41 -5.379,6.27 0.701,14.89 7.5,16.48 7.831,1.83 14.861,-3.66 15.191,-11.62 0.029,-0.55 0.67,-0.69 0.979,-0.41 0.231,-0.01 0.471,0.17 0.391,0.47 -2.66,10.56 12.229,17.24 20.659,16.07 C -5.08,21.83 1.12,11.7 -4.99,3.15 -5.12,2.97 -5.101,2.77 -5.011,2.61 -5.08,2.41 -4.931,2.14 -4.66,2.21 -2.801,2.64 -0.761,1.83 0,0"
             style="fill:#ffffff;fill-opacity:1;fill-rule:nonzero;stroke:none"
             id="path44" />
        </g>
        <g
           id="g46"
           transform="translate(534.6334,451.6135)">
          <path
             d="m 0,0 c -22.21,-1.38 -44.46,-2.11 -66.71,-2.33 -0.1,0 -0.17,0.03 -0.229,0.08 -4.26,1.3 -5.581,7.27 -2.84,10.61 2.439,2.97 6.88,3.02 9.949,1.05 -2.97,5.85 2.16,13.19 8.141,15.31 7.059,2.5 14.339,-1.12 16.939,-7.49 1.53,8.4 14.69,13.61 22.15,12.58 C -2.56,28.42 5.08,17.05 -1.649,8.28 0.21,8.41 2.13,7.43 2.88,5.64 3.801,3.47 2.75,0.77 0.66,-0.27 0.36,-0.42 0.08,-0.24 0,0 m -66.529,-1.56 c 0.009,0 0.009,-0.01 0.009,-0.01 22.3,0.77 44.581,1.8 66.861,2.94 C 0.61,1.38 0.79,1.26 0.891,1.08 2.03,2.14 2.591,3.73 1.971,5.26 1.21,7.09 -0.83,7.9 -2.689,7.47 -2.96,7.4 -3.109,7.67 -3.04,7.87 c -0.09,0.16 -0.109,0.36 0.02,0.54 6.111,8.55 -0.089,18.68 -9.85,20.03 -8.43,1.17 -23.319,-5.51 -20.659,-16.07 0.08,-0.3 -0.16,-0.48 -0.391,-0.47 -0.309,-0.28 -0.95,-0.14 -0.979,0.41 -0.33,7.96 -7.361,13.45 -15.191,11.62 -6.8,-1.59 -12.88,-10.21 -7.5,-16.48 0.12,-0.14 0.101,-0.3 0.01,-0.41 -0.029,-0.31 -0.47,-0.55 -0.71,-0.26 -2.55,3 -7.71,4.22 -10.55,0.85 -2.49,-2.95 -1.03,-7.66 2.311,-9.19"
             style="fill:#1d1d1b;fill-opacity:1;fill-rule:nonzero;stroke:none"
             id="path48" />
        </g>
        <g
           id="g50"
           transform="translate(218.298,11.5182)">
          <path
             d="m 0,0 c 0.62,-1.53 0.06,-3.12 -1.08,-4.18 -0.1,0.18 -0.28,0.3 -0.55,0.29 -22.28,-1.14 -44.56,-2.17 -66.86,-2.94 0,0 0,0.011 -0.01,0.011 -3.34,1.529 -4.8,6.239 -2.31,9.189 2.84,3.37 8,2.151 10.55,-0.849 0.24,-0.291 0.68,-0.051 0.71,0.259 0.09,0.111 0.11,0.27 -0.01,0.41 -5.38,6.27 0.7,14.89 7.5,16.48 7.83,1.83 14.86,-3.66 15.19,-11.62 0.03,-0.55 0.67,-0.69 0.98,-0.409 0.23,-0.011 0.47,0.17 0.39,0.469 -2.66,10.56 12.23,17.241 20.66,16.071 C -5.08,21.83 1.12,11.7 -4.99,3.15 -5.12,2.97 -5.1,2.771 -5.01,2.61 -5.08,2.41 -4.93,2.141 -4.66,2.21 -2.8,2.641 -0.76,1.83 0,0"
             style="fill:#ffffff;fill-opacity:1;fill-rule:nonzero;stroke:none"
             id="path52" />
        </g>
        <g
           id="g54"
           transform="translate(216.3278,6.2585)">
          <path
             d="m 0,0 c -22.21,-1.38 -44.46,-2.11 -66.71,-2.33 -0.1,0 -0.17,0.03 -0.23,0.08 -4.26,1.3 -5.58,7.27 -2.84,10.61 2.44,2.97 6.88,3.02 9.95,1.05 -2.97,5.85 2.16,13.19 8.14,15.31 7.06,2.5 14.34,-1.12 16.94,-7.491 1.53,8.401 14.69,13.611 22.15,12.581 C -2.56,28.42 5.08,17.05 -1.65,8.28 0.21,8.41 2.13,7.43 2.88,5.64 3.8,3.47 2.75,0.77 0.66,-0.271 0.36,-0.42 0.08,-0.24 0,0 m -66.53,-1.56 c 0.01,0 0.01,-0.01 0.01,-0.01 22.3,0.77 44.58,1.799 66.86,2.94 0.27,0.01 0.45,-0.11 0.55,-0.29 1.14,1.06 1.7,2.649 1.08,4.18 -0.76,1.83 -2.8,2.64 -4.66,2.21 -0.27,-0.07 -0.42,0.2 -0.35,0.4 -0.09,0.16 -0.11,0.359 0.02,0.54 6.11,8.55 -0.09,18.68 -9.85,20.03 -8.43,1.17 -23.32,-5.51 -20.66,-16.07 0.08,-0.3 -0.16,-0.48 -0.39,-0.47 -0.31,-0.28 -0.95,-0.14 -0.98,0.41 -0.33,7.96 -7.36,13.45 -15.19,11.62 -6.8,-1.59 -12.88,-10.21 -7.5,-16.48 0.12,-0.14 0.1,-0.3 0.01,-0.41 -0.03,-0.311 -0.47,-0.55 -0.71,-0.26 -2.55,3 -7.71,4.22 -10.55,0.85 -2.49,-2.95 -1.03,-7.66 2.31,-9.19"
             style="fill:#1d1d1b;fill-opacity:1;fill-rule:nonzero;stroke:none"
             id="path56" />
        </g>
        <g
           id="g58"
           transform="translate(198.2409,373.5139)">
          <path
             d="m 0,0 c -0.14,-0.33 0.4,-0.54 0.58,-0.24 0.82,1.38 2.87,1.25 3.92,0.19 1.33,-1.37 0.81,-3.37 0.02,-4.91 -18.6,-3.29 -37.02,-3.93 -55.85,-2.84 0.04,0.18 -0.03,0.37 -0.26,0.41 -4.59,0.84 -7.87,5.5 -4.85,9.8 2.8,3.98 8.17,2.98 10.49,-0.87 0.31,-0.52 1.05,-0.07 0.79,0.46 -0.03,0.08 -0.08,0.14 -0.12,0.21 0.23,0.02 0.44,0.29 0.29,0.51 -4.64,7.03 1.94,17.73 9.68,19.03 10.19,1.72 14.14,-9.43 14.87,-17.38 0.05,-0.56 0.73,-0.68 1,-0.36 0.13,-0.17 0.29,-0.34 0.51,-0.51 0.25,-0.18 0.51,0.21 0.32,0.42 -1.01,1.09 1.82,3.57 2.52,4.05 0.64,0.43 1.3,0.85 1.99,1.21 2.17,1.16 4.57,1.83 7.03,1.53 5.21,-0.63 8.11,-5.57 5.15,-10.1 -0.35,-0.53 0.42,-1.09 0.87,-0.67 0.35,0.33 0.64,0.67 0.89,1.02 L 0.47,0.75 C 0.28,0.54 0.12,0.29 0,0"
             style="fill:#ffffff;fill-opacity:1;fill-rule:nonzero;stroke:none"
             id="path60" />
        </g>
        <g
           id="g62"
           transform="translate(182.151,381.4841)">
          <path
             d="m 0,0 c -0.7,-0.48 -3.53,-2.96 -2.52,-4.05 0.19,-0.21 -0.07,-0.6 -0.32,-0.42 -0.22,0.17 -0.38,0.34 -0.51,0.51 -0.27,-0.32 -0.95,-0.2 -1,0.36 -0.73,7.95 -4.68,19.1 -14.87,17.38 -7.74,-1.3 -14.32,-12 -9.68,-19.03 0.15,-0.22 -0.06,-0.49 -0.29,-0.51 0.04,-0.07 0.09,-0.13 0.12,-0.21 0.26,-0.53 -0.48,-0.98 -0.79,-0.46 -2.32,3.85 -7.69,4.85 -10.49,0.87 -3.02,-4.3 0.26,-8.96 4.85,-9.8 0.23,-0.04 0.3,-0.23 0.26,-0.41 18.83,-1.09 37.25,-0.45 55.85,2.84 0.79,1.54 1.31,3.54 -0.02,4.91 -1.05,1.06 -3.1,1.19 -3.92,-0.19 -0.18,-0.3 -0.72,-0.09 -0.58,0.24 0.12,0.29 0.28,0.54 0.47,0.75 1.05,1.19 3.04,1.19 4.37,0.26 1.96,-1.37 1.78,-4.09 0.84,-6.1 0.28,-0.33 0.26,-0.91 -0.28,-1.02 -0.12,-0.02 -0.24,-0.04 -0.36,-0.06 -0.19,-0.25 -0.5,-0.26 -0.72,-0.14 -18.34,-3.45 -37.46,-4.48 -55.99,-2.14 -0.2,0.02 -0.31,0.19 -0.32,0.35 -5.69,0.01 -8.81,6.68 -5.55,11.26 2.66,3.76 7.97,3.82 10.97,0.83 -3.49,6.95 2.52,16.52 9.6,18.72 10.6,3.29 16.55,-7.87 17.53,-16.73 0.4,0.79 1.16,1.55 1.8,2.1 2.8,2.41 6.38,4.19 10.15,3.98 5.26,-0.29 10.8,-6.28 7.33,-11.1 -0.25,-0.35 -0.54,-0.69 -0.89,-1.02 -0.45,-0.42 -1.22,0.14 -0.87,0.67 2.96,4.53 0.06,9.47 -5.15,10.1 C 6.56,3.04 4.16,2.37 1.99,1.21 1.3,0.85 0.64,0.43 0,0"
             style="fill:#1d1d1b;fill-opacity:1;fill-rule:nonzero;stroke:none"
             id="path64" />
        </g>
        <g
           id="g66"
           transform="translate(157.6237,76.822)">
          <path
             d="m 0,0 c -0.14,-0.33 0.4,-0.54 0.58,-0.24 0.82,1.381 2.87,1.25 3.92,0.19 1.33,-1.37 0.81,-3.37 0.02,-4.91 -18.6,-3.29 -37.02,-3.93 -55.85,-2.84 0.04,0.18 -0.03,0.37 -0.26,0.41 -4.59,0.84 -7.87,5.5 -4.85,9.8 2.8,3.981 8.17,2.981 10.49,-0.87 0.31,-0.519 1.05,-0.07 0.79,0.46 -0.03,0.08 -0.08,0.141 -0.12,0.21 0.23,0.02 0.44,0.29 0.29,0.51 -4.64,7.03 1.94,17.73 9.68,19.03 10.19,1.72 14.14,-9.43 14.87,-17.38 0.05,-0.559 0.73,-0.68 1,-0.36 0.13,-0.17 0.29,-0.34 0.51,-0.51 0.25,-0.18 0.51,0.21 0.32,0.42 -1.01,1.09 1.82,3.57 2.52,4.05 0.64,0.43 1.3,0.85 1.99,1.21 2.17,1.16 4.57,1.83 7.03,1.53 5.21,-0.63 8.11,-5.569 5.15,-10.1 -0.35,-0.53 0.42,-1.089 0.87,-0.67 0.35,0.331 0.64,0.67 0.89,1.02 L 0.47,0.75 C 0.28,0.54 0.12,0.29 0,0"
             style="fill:#ffffff;fill-opacity:1;fill-rule:nonzero;stroke:none"
             id="path68" />
        </g>
        <g
           id="g70"
           transform="translate(141.5333,84.7917)">
          <path
             d="m 0,0 c -0.7,-0.479 -3.53,-2.96 -2.52,-4.05 0.19,-0.21 -0.07,-0.599 -0.32,-0.42 -0.22,0.17 -0.38,0.34 -0.51,0.51 -0.27,-0.319 -0.95,-0.199 -1,0.36 -0.73,7.951 -4.68,19.1 -14.87,17.38 -7.74,-1.3 -14.32,-12 -9.68,-19.03 0.15,-0.22 -0.06,-0.489 -0.29,-0.51 0.04,-0.069 0.09,-0.13 0.12,-0.21 0.26,-0.53 -0.48,-0.979 -0.79,-0.46 -2.32,3.851 -7.69,4.851 -10.49,0.87 -3.02,-4.299 0.26,-8.96 4.85,-9.799 0.23,-0.04 0.3,-0.231 0.26,-0.411 18.83,-1.089 37.25,-0.45 55.85,2.84 0.79,1.54 1.31,3.54 -0.02,4.91 -1.05,1.06 -3.1,1.191 -3.92,-0.19 -0.18,-0.3 -0.72,-0.09 -0.58,0.24 0.12,0.29 0.28,0.54 0.47,0.75 1.05,1.191 3.04,1.191 4.37,0.26 1.96,-1.369 1.78,-4.09 0.84,-6.1 0.28,-0.33 0.26,-0.91 -0.28,-1.019 -0.12,-0.021 -0.24,-0.04 -0.36,-0.061 -0.19,-0.25 -0.5,-0.259 -0.72,-0.139 -18.34,-3.45 -37.46,-4.481 -55.99,-2.141 -0.2,0.021 -0.31,0.191 -0.32,0.351 -5.69,0.009 -8.81,6.679 -5.55,11.259 2.66,3.76 7.97,3.821 10.97,0.831 -3.49,6.95 2.52,16.519 9.6,18.719 10.6,3.29 16.55,-7.87 17.53,-16.729 0.4,0.79 1.16,1.55 1.8,2.099 2.8,2.411 6.38,4.191 10.15,3.981 5.26,-0.29 10.8,-6.28 7.33,-11.101 -0.25,-0.349 -0.54,-0.689 -0.89,-1.019 -0.45,-0.42 -1.22,0.139 -0.87,0.67 C 17.13,-2.829 14.23,2.11 9.02,2.74 6.56,3.04 4.16,2.37 1.99,1.21 1.3,0.851 0.64,0.431 0,0"
             style="fill:#1d1d1b;fill-opacity:1;fill-rule:nonzero;stroke:none"
             id="path72" />
        </g>
        <g
           id="g74"
           transform="translate(302.6984,84.5261)">
          <path
             d="M 0,0 C 0.45,0.41 0.92,0.8 1.42,1.14 H 1.49 C 1.46,1.061 1.44,0.97 1.46,0.86 c 1.27,-7.77 2.65,-15.48 3.53,-23.299 -1.38,2.529 -2.78,5.049 -4.35,7.449 -0.31,0.47 -0.91,0.19 -0.92,-0.25 -0.12,0.06 -0.24,0.13 -0.36,0.19 -0.49,0.29 -0.94,0.64 -1.34,1.071 -0.04,0.04 -0.07,0.069 -0.1,0.109 -36.33,2.87 -72.9,5.32 -109.37,5.6 0.88,0.291 1.77,0.56 2.65,0.84 C -72.52,-5.18 -36.32,-1.84 0,0"
             style="fill:#e1f5f8;fill-opacity:1;fill-rule:nonzero;stroke:none"
             id="path76" />
        </g>
        <g
           id="g78"
           transform="translate(303.1285,67.7057)">
          <path
             d="M 0,0 C 1.33,-2.659 2.82,-5.239 4.29,-7.829 2.75,-7.619 1.18,-7.42 -0.37,-7.38 -0.24,-4.92 -0.13,-2.46 0,0"
             style="fill:#e1f5f8;fill-opacity:1;fill-rule:nonzero;stroke:none"
             id="path80" />
        </g>
        <g
           id="g82"
           transform="translate(303.1285,110.196)">
          <path
             d="m 0,0 c 1.24,-7.89 0.8,-16.16 0.13,-24.34 -0.08,0.03 -0.17,0.05 -0.27,0.04 -35.27,-1.809 -70.8,-3.63 -105.91,-7.8 34.93,11.08 70.02,21.661 105.28,31.69 0.31,0.091 0.48,0.29 0.56,0.53 L 0,0.05 Z"
             style="fill:#f6f6f6;fill-opacity:1;fill-rule:nonzero;stroke:none"
             id="path84" />
        </g>
        <g
           id="g86"
           transform="translate(299.9586,34.0563)">
          <path
             d="M 0,0 C -0.01,-0.23 0.1,-0.391 0.24,-0.48 L 0.18,-0.62 c -37.32,15.16 -75.58,28.269 -113.69,41.3 0.69,0.219 1.39,0.44 2.08,0.66 37.74,-1.76 75.44,-3.17 113.12,-6.17 0.12,0 0.22,0.019 0.31,0.059 C 1.26,23.5 0.31,11.74 0,0"
             style="fill:#f6f6f6;fill-opacity:1;fill-rule:nonzero;stroke:none"
             id="path88" />
        </g>
        <g
           id="g90"
           transform="translate(299.9586,34.0563)">
          <path
             d="M 0,0 C 0.31,11.74 1.26,23.5 2,35.229 L 2.1,35.42 C 2.22,35.359 2.34,35.29 2.46,35.229 2.47,35.67 3.07,35.95 3.38,35.479 4.95,33.08 6.35,30.56 7.73,28.03 6.85,35.85 5.47,43.56 4.2,51.33 c -0.02,0.109 0,0.2 0.03,0.279 0.16,0.341 0.7,0.411 0.82,-0.039 2.3,-8.68 3.44,-17.7 4.3,-26.631 C 9.41,24.29 8.44,24.08 8.14,24.609 8.08,24.729 8.01,24.85 7.94,24.97 6.22,24.979 4.46,25 2.75,25.189 2.34,16.78 1.89,8.359 1.14,0 1.09,-0.49 0.56,-0.66 0.24,-0.48 0.1,-0.391 -0.01,-0.23 0,0 M 7.46,25.82 C 5.99,28.41 4.5,30.99 3.17,33.649 3.04,31.189 2.93,28.729 2.8,26.27 4.35,26.229 5.92,26.03 7.46,25.82"
             style="fill:#1d1d1b;fill-opacity:1;fill-rule:nonzero;stroke:none"
             id="path92" />
        </g>
        <g
           id="g94"
           transform="translate(301.6486,69.2263)">
          <path
             d="m 0,0 c -37.68,3 -75.38,4.41 -113.12,6.17 -0.69,-0.22 -1.39,-0.441 -2.08,-0.66 38.11,-13.031 76.37,-26.14 113.69,-41.3 0.31,-0.13 0.63,-0.25 0.94,-0.38 0.27,-0.11 0.16,-0.54 -0.13,-0.44 -39.25,13.38 -78.11,27.93 -117.36,41.339 -0.78,0.271 -0.8,1.351 0,1.601 0.08,0.03 0.16,0.06 0.24,0.08 -0.28,0.15 -0.24,0.65 0.15,0.65 0.62,0 1.24,0 1.86,-0.01 38.49,12.35 77.19,24.06 116.07,35.13 0.73,0.2 1.16,-0.53 1.01,-1.09 C 1.19,40.85 1.02,40.65 0.71,40.56 -34.55,30.53 -69.64,19.95 -104.57,8.87 c 35.11,4.17 70.64,5.99 105.91,7.8 0.1,0.01 0.19,-0.01 0.27,-0.04 0.67,8.18 1.11,16.45 -0.13,24.34 v 0.05 c 0,0.28 0.4,0.38 0.49,0.09 C 3.79,35.42 3.19,29.43 2.86,23.55 L 2.47,16.439 C 1.97,16.1 1.5,15.71 1.05,15.3 -35.27,13.46 -71.47,10.12 -107.75,7.87 -108.63,7.59 -109.52,7.32 -110.4,7.03 -73.93,6.75 -37.36,4.3 -1.03,1.43 -1,1.39 -0.97,1.36 -0.93,1.32 -0.53,0.89 -0.08,0.54 0.41,0.25 L 0.31,0.06 C 0.22,0.02 0.12,0 0,0"
             style="fill:#1d1d1b;fill-opacity:1;fill-rule:nonzero;stroke:none"
             id="path96" />
        </g>
        <g
           id="g98"
           transform="translate(719.7135,111.571)">
          <path
             d="m 0,0 c 5.304,3.807 5.719,11.267 1.927,16.256 -0.165,0.227 -0.396,0.269 -0.592,0.209 -3.574,3.842 -9.642,5.071 -14.244,1.97 C -17.792,15.137 -19.213,7.852 -16.094,2.885 -12.675,-2.548 -5.121,-3.667 0,0 m -41.947,-22.717 c -0.239,-0.043 -0.4,-0.178 -0.463,-0.335 l -0.086,0.072 c 4.757,12.677 9.793,25.225 16.359,37.098 2.905,5.253 6.579,11.126 12.158,13.859 7.083,3.458 14.436,0.305 19.108,-5.5 C 8.923,17.764 10.944,11.367 10.3,5.334 9.448,-2.74 3.517,-8.117 -3.393,-11.612 c -12.08,-6.121 -25.352,-8.766 -38.554,-11.105"
             style="fill:#fc1f60;fill-opacity:1;fill-rule:nonzero;stroke:none"
             id="path100" />
        </g>
        <g
           id="g102"
           transform="translate(720.0553,113.6061)">
          <path
             d="m 0,0 c -4.344,-4.281 -12.103,-3.79 -15.337,1.641 -2.767,4.623 -1.454,11.633 3.607,14.206 4.086,2.082 8.94,1.009 12.24,-1.901 C 0.467,13.78 0.485,13.587 0.611,13.405 3.544,9.378 3.676,3.617 0,0"
             style="fill:#f6f6f6;fill-opacity:1;fill-rule:nonzero;stroke:none"
             id="path104" />
        </g>
        <g
           id="g106"
           transform="translate(704.7184,115.2468)">
          <path
             d="m 0,0 c 3.234,-5.431 10.993,-5.922 15.337,-1.641 3.676,3.618 3.544,9.378 0.611,13.406 -0.126,0.181 -0.144,0.375 -0.101,0.541 -3.3,2.91 -8.154,3.982 -12.241,1.9 C -1.454,11.634 -2.767,4.623 0,0 M 16.922,12.58 C 20.714,7.591 20.299,0.131 14.995,-3.676 9.874,-7.343 2.32,-6.224 -1.099,-0.791 c -3.119,4.967 -1.698,12.252 3.185,15.55 4.602,3.101 10.67,1.872 14.244,-1.97 0.196,0.061 0.427,0.019 0.592,-0.209"
             style="fill:#1d1d1b;fill-opacity:1;fill-rule:nonzero;stroke:none"
             id="path108" />
        </g>
        <g
           id="g110"
           transform="translate(730.0133,116.905)">
          <path
             d="m 0,0 c 0.645,6.033 -1.377,12.43 -5.171,17.143 -4.672,5.805 -12.025,8.958 -19.108,5.5 -5.578,-2.733 -9.253,-8.606 -12.158,-13.859 -6.566,-11.873 -11.602,-24.421 -16.359,-37.098 -0.074,-0.193 -0.355,-0.09 -0.296,0.104 2.589,8.694 5.967,17.164 9.744,25.406 3.223,7.022 6.537,14.68 11.534,20.643 7.866,9.374 19.781,9.902 27.654,0.151 7.438,-9.214 7.757,-23.027 -1.345,-31.192 -6.121,-5.509 -14.693,-8.39 -22.406,-10.862 -7.801,-2.495 -15.96,-4.545 -24.121,-5.254 -0.572,-0.049 -0.863,0.53 -0.678,0.932 0.064,0.157 0.225,0.292 0.463,0.335 13.202,2.339 26.475,4.984 38.555,11.105 C -6.783,-13.451 -0.852,-8.074 0,0"
             style="fill:#1d1d1b;fill-opacity:1;fill-rule:nonzero;stroke:none"
             id="path112" />
        </g>
        <g
           id="g114"
           transform="translate(258.9044,434.9855)">
          <path
             d="m 0,0 c -5.23,-21.58 -9.48,-43.41 -14.39,-65.08 -3.47,3.22 0.98,14.72 1.77,18.12 1.24,5.36 2.49,10.73 3.74,16.1 2.4,10.37 4.85,20.74 7.29,31.11 C -1.06,0.17 -0.53,0.08 0,0"
             style="fill:#fd9a27;fill-opacity:1;fill-rule:nonzero;stroke:none"
             id="path116" />
        </g>
        <g
           id="g118"
           transform="translate(268.5343,426.1057)">
          <path
             d="m 0,0 c -3.34,-17.9 -6.94,-35.79 -9.72,-53.78 -0.02,-0.14 0.18,-0.2 0.21,-0.06 3.78,17.8 6.75,35.8 9.97,53.71 C 0.52,0.18 0.05,0.31 0,0 m -2.97,-8.86 c 0.33,0.69 0.48,0.82 0.46,0.39 v -0.42 c -0.01,-0.33 -0.04,-0.66 -0.11,-0.98 -0.11,-0.54 -0.35,-1.17 -0.94,-1.32 -0.89,-0.24 -1.44,0.78 -1.42,1.52 0.01,0.94 0.73,1.76 1.27,2.46 0.1,0.12 -0.06,0.3 -0.17,0.18 -0.77,-0.77 -1.62,-1.69 -1.58,-2.85 0.03,-0.8 0.55,-1.66 1.37,-1.84 1.96,-0.41 2.25,2.42 1.94,3.7 -0.02,0.06 -0.07,0.12 -0.14,0.13 -0.64,0.15 -1.21,-0.45 -0.92,-1.07 0.06,-0.13 0.29,-0.04 0.24,0.1 m -7.2,-17.11 c 0.24,-0.2 0.28,-0.87 0.26,-1.15 -0.06,-0.92 -0.76,-1.61 -1.69,-1.59 -2.14,0.04 -2.26,2.92 -0.36,3.51 0.25,0.08 0.15,0.46 -0.11,0.4 -0.74,-0.15 -1.25,-0.6 -1.53,-1.15 0.19,2.24 0.33,4.48 0.42,6.72 0.01,0.26 -0.4,0.26 -0.41,0 -0.37,-11.03 -2.5,-21.58 -5.36,-32.2 -0.01,-0.04 0.04,-0.05 0.05,-0.02 2.76,7.63 4.34,15.65 5.14,23.73 0.21,-0.68 0.72,-1.27 1.54,-1.5 2.31,-0.64 3.92,2.3 2.16,3.9 -0.08,0.08 -0.19,0.1 -0.29,0.04 -0.74,-0.38 -1.09,-1.15 -0.92,-1.96 0.05,-0.2 0.34,-0.12 0.31,0.08 -0.05,0.33 0.23,1.65 0.79,1.19 m -0.44,3.89 c 1.22,9.85 3.3,19.72 5.5,29.4 0.11,0.51 -0.68,0.71 -0.77,0.21 -1.67,-9.87 -4.24,-19.61 -5.08,-29.61 -0.02,-0.23 0.32,-0.22 0.35,0 m 2.05,1.85 c 1.91,6.72 2.98,13.71 3.85,20.64 0.03,0.29 -0.42,0.28 -0.45,0 -0.9,-6.93 -2.34,-13.72 -3.66,-20.57 -0.03,-0.17 0.21,-0.24 0.26,-0.07 m 3.52,3.8 c -3.43,-12.7 -5.79,-25.76 -7.81,-38.76 -0.08,-0.5 0.69,-0.72 0.77,-0.21 2.1,13.04 4.79,25.94 7.29,38.91 0.03,0.16 -0.2,0.22 -0.25,0.06 M -8.54,8.72 C -5.88,8.33 -3.23,7.97 -0.57,7.62 -0.6,7.6 -0.63,7.58 -0.64,7.53 -1.96,4.07 -2.86,0.4 -3.04,-3.32 c -0.02,-0.36 0.52,-0.35 0.55,0 0.4,3.69 1.03,7.23 2.19,10.76 0.02,0.06 0.01,0.11 -0.02,0.15 C 1.01,7.41 2.34,7.23 3.67,7.07 3.57,6.96 3.48,6.84 3.44,6.65 c -2.8,-13.63 -5.6,-27.28 -7.86,-41.01 -1.01,-6.15 -1.92,-12.31 -2.67,-18.49 -0.54,-4.45 -0.84,-4.89 -5.36,-4.8 -3.35,0.08 -6.71,0.15 -10.06,0.22 4.99,21.95 10.23,43.96 13.97,66.15"
             style="fill:#fdae52;fill-opacity:1;fill-rule:nonzero;stroke:none"
             id="path120" />
        </g>
        <g
           id="g122"
           transform="translate(223.1041,468.5954)">
          <path
             d="M 0,0 C 0.82,2.69 2.08,8.64 3.64,2.19 3.67,2.06 3.74,1.97 3.82,1.9 1.34,-6.89 -1.24,-15.67 -3.46,-24.53 c -3.99,4.68 -0.3,12.18 1.29,17.41 0.73,2.37 1.45,4.75 2.17,7.12"
             style="fill:#46c1d2;fill-opacity:1;fill-rule:nonzero;stroke:none"
             id="path124" />
        </g>
        <g
           id="g126"
           transform="translate(320.1642,452.3557)">
          <path
             d="M 0,0 C 2.11,-2.17 7.94,-6.67 6.6,-10.43 4.52,-4.79 -1.83,0.95 -6.09,4.66 -6.18,4.74 -6.27,4.78 -6.36,4.82 -6.57,5.61 -6.81,6.39 -7.08,7.17 -4.74,4.76 -2.34,2.4 0,0"
             style="fill:#46c1d2;fill-opacity:1;fill-rule:nonzero;stroke:none"
             id="path128" />
        </g>
        <g
           id="g130"
           transform="translate(312.2941,459.2956)">
          <path
             d="m 0,0 c 0.25,-0.72 0.52,-1.44 0.82,-2.15 -0.11,-0.04 -0.2,-0.11 -0.28,-0.19 -0.09,0.06 -0.19,0.11 -0.32,0.13 -27.96,5.56 -56.25,9.8 -84.35,14.63 -0.13,0.02 -0.26,0.02 -0.39,-0.01 -0.39,1.65 -1.04,2.85 -2.15,4.09 28.21,-7.62 57.53,-12.61 86.46,-16.51 0.08,-0.01 0.14,0 0.21,0.01"
             style="fill:#46c1d2;fill-opacity:1;fill-rule:nonzero;stroke:none"
             id="path132" />
        </g>
        <g
           id="g134"
           transform="translate(312.8741,455.7556)">
          <path
             d="m 0,0 c 3.04,-2.71 13.78,-11.33 10.67,-15.54 -1.36,-1.85 -5.21,-3.21 -7.17,-4.41 -2.7,-1.67 -5.4,-3.33 -8.07,-5.03 -0.1,0.33 -0.36,0.61 -0.78,0.66 -14.85,1.53 -29.67,3.04 -44.45,5.14 -14.16,2.01 -28.22,4.67 -42.36,6.78 0.11,0.08 0.2,0.18 0.25,0.34 1.32,4.16 2.53,8.36 3.72,12.55 0.69,2.4 1.37,4.8 2.05,7.2 0.31,1.08 0.64,4.59 1.53,5.4 2.4,2.16 10.08,-0.67 13.17,-1.21 4.9,-0.86 9.81,-1.7 14.71,-2.55 C -38.11,6.11 -19.5,2.46 -0.81,-0.3 -0.46,-0.35 -0.18,-0.21 0,0"
             style="fill:#90dae4;fill-opacity:1;fill-rule:nonzero;stroke:none"
             id="path136" />
        </g>
        <g
           id="g138"
           transform="translate(266.2443,418.2155)">
          <path
             d="m 0,0 c 0.07,-0.01 0.12,-0.07 0.14,-0.13 0.31,-1.28 0.02,-4.11 -1.94,-3.7 -0.82,0.18 -1.34,1.04 -1.37,1.84 -0.04,1.16 0.81,2.08 1.58,2.85 0.11,0.12 0.27,-0.06 0.17,-0.18 -0.54,-0.7 -1.26,-1.52 -1.27,-2.46 -0.02,-0.74 0.53,-1.76 1.42,-1.52 0.59,0.15 0.83,0.78 0.94,1.32 0.07,0.32 0.1,0.65 0.11,0.98 v 0.42 c 0.02,0.43 -0.13,0.3 -0.46,-0.39 0.05,-0.14 -0.18,-0.23 -0.24,-0.1 C -1.21,-0.45 -0.64,0.15 0,0"
             style="fill:#1d1d1b;fill-opacity:1;fill-rule:nonzero;stroke:none"
             id="path140" />
        </g>
        <g
           id="g142"
           transform="translate(263.8243,426.5153)">
          <path
             d="m 0,0 c -0.87,-6.93 -1.94,-13.92 -3.85,-20.64 -0.05,-0.17 -0.29,-0.1 -0.26,0.07 1.32,6.85 2.76,13.64 3.66,20.57 0.03,0.28 0.48,0.29 0.45,0"
             style="fill:#1d1d1b;fill-opacity:1;fill-rule:nonzero;stroke:none"
             id="path144" />
        </g>
        <g
           id="g146"
           transform="translate(258.8141,372.3254)">
          <path
             d="m 0,0 c 2.78,17.99 6.38,35.88 9.72,53.78 0.05,0.31 0.52,0.18 0.46,-0.13 C 6.96,35.74 3.99,17.74 0.21,-0.06 0.18,-0.2 -0.02,-0.14 0,0"
             style="fill:#1d1d1b;fill-opacity:1;fill-rule:nonzero;stroke:none"
             id="path148" />
        </g>
        <g
           id="g150"
           transform="translate(263.4244,433.4255)">
          <path
             d="m 0,0 c -2.2,-9.68 -4.28,-19.55 -5.5,-29.4 -0.03,-0.22 -0.37,-0.23 -0.35,0 0.84,10 3.41,19.74 5.08,29.61 C -0.68,0.71 0.11,0.51 0,0"
             style="fill:#1d1d1b;fill-opacity:1;fill-rule:nonzero;stroke:none"
             id="path152" />
        </g>
        <g
           id="g154"
           transform="translate(263.7443,409.6154)">
          <path
             d="m 0,0 c -2.5,-12.97 -5.19,-25.87 -7.29,-38.91 -0.08,-0.51 -0.85,-0.29 -0.77,0.21 2.02,13 4.38,26.06 7.81,38.76 C -0.2,0.22 0.03,0.16 0,0"
             style="fill:#1d1d1b;fill-opacity:1;fill-rule:nonzero;stroke:none"
             id="path156" />
        </g>
        <g
           id="g158"
           transform="translate(258.6241,398.9855)">
          <path
             d="m 0,0 c 0.02,0.28 -0.02,0.95 -0.26,1.15 -0.56,0.46 -0.84,-0.86 -0.79,-1.19 0.03,-0.2 -0.26,-0.28 -0.31,-0.08 -0.17,0.81 0.18,1.58 0.92,1.96 0.1,0.06 0.21,0.04 0.29,-0.04 1.76,-1.6 0.15,-4.54 -2.16,-3.9 -0.82,0.23 -1.33,0.82 -1.54,1.5 -0.8,-8.08 -2.38,-16.1 -5.14,-23.73 -0.01,-0.03 -0.06,-0.02 -0.05,0.02 2.86,10.62 4.99,21.17 5.36,32.2 0.01,0.26 0.42,0.26 0.41,0 -0.09,-2.24 -0.23,-4.48 -0.42,-6.72 0.28,0.55 0.79,1 1.53,1.15 C -1.9,2.38 -1.8,2 -2.05,1.92 -3.95,1.33 -3.83,-1.55 -1.69,-1.59 -0.76,-1.61 -0.06,-0.92 0,0"
             style="fill:#1d1d1b;fill-opacity:1;fill-rule:nonzero;stroke:none"
             id="path160" />
        </g>
        <g
           id="g162"
           transform="translate(265.4943,422.7853)">
          <path
             d="m 0,0 c 0.18,3.72 1.08,7.39 2.4,10.85 0.01,0.05 0.04,0.07 0.07,0.09 -2.66,0.35 -5.31,0.71 -7.97,1.1 -3.74,-22.19 -8.98,-44.2 -13.97,-66.15 3.35,-0.07 6.71,-0.14 10.06,-0.22 4.52,-0.09 4.82,0.35 5.36,4.8 0.75,6.18 1.66,12.34 2.67,18.49 2.26,13.73 5.06,27.38 7.86,41.01 0.04,0.19 0.13,0.31 0.23,0.42 C 5.38,10.55 4.05,10.73 2.72,10.91 2.75,10.87 2.76,10.82 2.74,10.76 1.58,7.23 0.95,3.69 0.55,0 0.52,-0.35 -0.02,-0.36 0,0 M 61.44,17.57 C 61.32,17.43 61.16,17.41 61.01,17.45 58.96,15.42 55.73,14.04 53.3,12.58 49.83,10.49 46.37,8.39 42.86,6.36 42.34,6.06 41.88,6.47 41.83,6.92 30.63,7.76 19.31,8.83 8,10.22 8.15,10.04 8.22,9.8 8.16,9.51 c -4.41,-21.49 -8.77,-43 -11.12,-64.83 -0.05,-0.46 -0.36,-0.88 -0.87,-0.87 -5.58,0.12 -11.15,0.24 -16.73,0.36 -0.58,0.02 -0.96,0.55 -0.83,1.1 0.05,0.24 0.1,0.48 0.16,0.72 -2.29,1.08 -2.65,3.22 -2.32,5.88 0.84,6.78 3.13,13.67 4.67,20.33 3.12,13.48 6.21,26.97 9.28,40.47 -12.02,1.86 -23.94,4.14 -35.61,6.96 -0.21,0.05 -0.31,0.18 -0.34,0.34 -4.13,1.89 -3.82,6.6 -2.88,10.4 1.91,7.71 4.59,15.32 6.91,22.91 0.09,0.3 0.36,0.46 0.63,0.47 0.06,0.24 0.27,0.44 0.59,0.38 28.85,-5.87 57.51,-11.84 86.64,-16.23 -0.07,0.46 0.64,0.63 0.81,0.15 0.02,-0.07 0.05,-0.14 0.07,-0.21 0.08,0.01 0.16,-0.02 0.23,-0.08 4.66,-3.89 9.31,-8.28 13.17,-12.98 1.84,-2.25 2.83,-4.79 0.82,-7.21 M 47.62,34.36 c -0.3,0.71 -0.57,1.43 -0.82,2.15 -0.07,-0.01 -0.13,-0.02 -0.21,-0.01 -28.93,3.9 -58.25,8.89 -86.46,16.51 1.11,-1.24 1.76,-2.44 2.15,-4.09 0.13,0.03 0.26,0.03 0.39,0.01 28.1,-4.83 56.39,-9.07 84.35,-14.63 0.13,-0.02 0.23,-0.07 0.32,-0.13 0.08,0.08 0.17,0.15 0.28,0.19 M 61.27,19.14 c 1.34,3.76 -4.49,8.26 -6.6,10.43 -2.34,2.4 -4.74,4.76 -7.08,7.17 0.27,-0.78 0.51,-1.56 0.72,-2.35 0.09,-0.04 0.18,-0.08 0.27,-0.16 4.26,-3.71 10.61,-9.45 12.69,-15.09 M -2.42,13.79 c 14.78,-2.1 29.6,-3.61 44.45,-5.14 0.42,-0.05 0.68,-0.33 0.78,-0.66 2.67,1.7 5.37,3.36 8.07,5.03 1.96,1.2 5.81,2.56 7.17,4.41 3.11,4.21 -7.63,12.83 -10.67,15.54 -0.18,-0.21 -0.46,-0.35 -0.81,-0.3 -18.69,2.76 -37.3,6.41 -55.92,9.63 -4.9,0.85 -9.81,1.69 -14.71,2.55 -3.09,0.54 -10.77,3.37 -13.17,1.21 -0.89,-0.81 -1.22,-4.32 -1.53,-5.4 -0.68,-2.4 -1.36,-4.8 -2.05,-7.2 -1.19,-4.19 -2.4,-8.39 -3.72,-12.55 -0.05,-0.16 -0.14,-0.26 -0.25,-0.34 14.14,-2.11 28.2,-4.77 42.36,-6.78 m -43.43,7.49 c 2.22,8.86 4.8,17.64 7.28,26.43 -0.08,0.07 -0.15,0.16 -0.18,0.29 -1.56,6.45 -2.82,0.5 -3.64,-2.19 -0.72,-2.37 -1.44,-4.75 -2.17,-7.12 -1.59,-5.23 -5.28,-12.73 -1.29,-17.41 M -6.59,12.2 c -0.53,0.08 -1.06,0.17 -1.59,0.25 -2.44,-10.37 -4.89,-20.74 -7.29,-31.11 -1.25,-5.37 -2.5,-10.74 -3.74,-16.1 -0.79,-3.4 -5.24,-14.9 -1.77,-18.12 4.91,21.67 9.16,43.5 14.39,65.08"
             style="fill:#1d1d1b;fill-opacity:1;fill-rule:nonzero;stroke:none"
             id="path164" />
        </g>
        <g
           id="g166"
           transform="translate(59.0416,92.9089)">
          <path
             d="m 0,0 c 4.983,-21.638 10.955,-43.061 16.265,-64.637 -4.544,1.326 -5.713,13.602 -6.529,16.996 C 8.446,-42.293 7.16,-36.932 5.874,-31.57 3.378,-21.223 0.927,-10.854 -1.534,-0.488 -1.024,-0.322 -0.51,-0.165 0,0"
             style="fill:#fd9a27;fill-opacity:1;fill-rule:nonzero;stroke:none"
             id="path168" />
        </g>
        <g
           id="g170"
           transform="translate(71.6281,89.279)">
          <path
             d="m 0,0 c 5.026,-17.501 9.815,-35.11 15.383,-52.441 0.044,-0.134 0.25,-0.099 0.214,0.04 C 11.009,-34.792 5.607,-17.366 0.47,0.09 0.384,0.395 -0.094,0.3 0,0 m 1.311,-9.252 c -0.015,0.765 0.062,0.948 0.236,0.555 0.063,-0.125 0.125,-0.25 0.188,-0.375 0.139,-0.3 0.26,-0.609 0.34,-0.926 0.144,-0.532 0.211,-1.203 -0.249,-1.602 -0.689,-0.612 -1.637,0.053 -1.951,0.724 -0.411,0.845 -0.134,1.9 0.035,2.769 0.036,0.152 -0.188,0.241 -0.233,0.085 -0.344,-1.034 -0.692,-2.237 -0.136,-3.256 0.384,-0.702 1.234,-1.239 2.048,-1.033 1.936,0.511 0.929,3.171 0.078,4.177 -0.044,0.045 -0.116,0.076 -0.183,0.054 -0.639,-0.152 -0.88,-0.944 -0.343,-1.368 0.111,-0.09 0.276,0.094 0.17,0.196 m 1.22,-18.522 c 0.304,-0.072 0.64,-0.654 0.747,-0.913 0.359,-0.849 0.042,-1.78 -0.799,-2.178 -1.932,-0.922 -3.328,1.599 -1.893,2.977 0.187,0.184 -0.072,0.479 -0.277,0.309 -0.595,-0.465 -0.85,-1.096 -0.854,-1.713 -0.833,2.088 -1.71,4.153 -2.633,6.197 -0.107,0.237 -0.473,0.053 -0.366,-0.183 4.606,-10.03 7.424,-20.417 9.621,-31.194 0.009,-0.04 0.058,-0.026 0.054,0.005 -0.948,8.058 -3.125,15.937 -6.027,23.521 0.493,-0.515 1.213,-0.814 2.049,-0.653 2.352,0.462 2.475,3.812 0.185,4.454 -0.107,0.037 -0.214,0.005 -0.276,-0.093 -0.492,-0.671 -0.46,-1.517 0.054,-2.164 0.134,-0.158 0.358,0.045 0.241,0.21 -0.192,0.272 -0.532,1.578 0.174,1.418 m -2.135,3.281 c -3.318,9.354 -5.876,19.111 -8.242,28.752 -0.13,0.505 -0.926,0.33 -0.783,-0.157 2.925,-9.574 4.987,-19.434 8.712,-28.751 0.085,-0.215 0.385,-0.054 0.313,0.156 m 1.005,2.572 c -1.3,6.863 -3.472,13.594 -5.796,20.18 -0.103,0.272 -0.501,0.062 -0.403,-0.201 2.298,-6.601 4.049,-13.317 5.936,-20.033 0.049,-0.166 0.295,-0.121 0.263,0.054 m 1.447,4.974 c 2.618,-12.893 6.354,-25.627 10.367,-38.157 0.152,-0.482 0.939,-0.334 0.783,0.158 -3.96,12.6 -7.329,25.34 -10.899,38.056 -0.045,0.158 -0.278,0.108 -0.251,-0.057 M -11.54,3.976 c 2.553,0.841 5.084,1.706 7.619,2.584 -0.017,-0.032 -0.036,-0.063 -0.022,-0.113 0.368,-3.684 1.207,-7.369 2.711,-10.776 0.143,-0.331 0.622,-0.08 0.492,0.246 -1.295,3.479 -2.316,6.927 -2.859,10.603 -0.009,0.062 -0.04,0.102 -0.085,0.125 1.27,0.434 2.54,0.868 3.801,1.321 C 0.077,7.822 0.05,7.675 0.099,7.487 c 3.598,-13.442 7.204,-26.901 11.33,-40.19 1.849,-5.951 3.793,-11.867 5.889,-17.73 1.509,-4.22 1.438,-4.748 -2.644,-6.691 -3.031,-1.428 -6.068,-2.869 -9.094,-4.307 -5.364,21.862 -10.531,43.889 -17.12,65.407"
             style="fill:#fdae52;fill-opacity:1;fill-rule:nonzero;stroke:none"
             id="path172" />
        </g>
        <g
           id="g174"
           transform="translate(11.9835,106.9382)">
          <path
             d="M 0,0 C -0.471,2.772 -2.008,8.657 2.275,3.588 2.36,3.484 2.462,3.436 2.565,3.409 4.283,-5.562 5.906,-14.567 7.887,-23.484 2.224,-21.085 2.167,-12.727 1.247,-7.338 0.839,-4.893 0.417,-2.441 0,0"
             style="fill:#46c1d2;fill-opacity:1;fill-rule:nonzero;stroke:none"
             id="path176" />
        </g>
        <g
           id="g178"
           transform="translate(106.0455,135.864)">
          <path
             d="M 0,0 C 2.858,-0.995 10.086,-2.409 10.571,-6.372 6.186,-2.26 -2.062,0.03 -7.532,1.441 -7.648,1.473 -7.747,1.468 -7.845,1.464 -8.386,2.076 -8.95,2.666 -9.541,3.242 -6.369,2.135 -3.167,1.099 0,0"
             style="fill:#46c1d2;fill-opacity:1;fill-rule:nonzero;stroke:none"
             id="path180" />
        </g>
        <g
           id="g182"
           transform="translate(95.9015,138.5475)">
          <path
             d="M 0,0 C 0.546,-0.532 1.109,-1.055 1.696,-1.556 1.615,-1.641 1.566,-1.744 1.53,-1.851 1.423,-1.838 1.311,-1.838 1.186,-1.878 -26.305,-9.422 -53.5,-18.295 -80.79,-26.555 c -0.125,-0.04 -0.241,-0.098 -0.344,-0.183 -1.087,1.301 -2.206,2.083 -3.754,2.695 28.638,5.814 57.089,14.477 84.705,23.939 C -0.107,-0.076 -0.058,-0.041 0,0"
             style="fill:#46c1d2;fill-opacity:1;fill-rule:nonzero;stroke:none"
             id="path184" />
        </g>
        <g
           id="g186"
           transform="translate(98.005,135.6413)">
          <path
             d="m 0,0 c 3.931,-1.062 17.394,-3.963 16.498,-9.119 -0.389,-2.264 -3.223,-5.203 -4.438,-7.153 -1.667,-2.703 -3.338,-5.396 -4.965,-8.111 -0.237,0.25 -0.595,0.384 -0.992,0.241 -13.964,-5.28 -27.893,-10.563 -42.049,-15.301 -13.562,-4.541 -27.325,-8.457 -40.914,-12.9 0.063,0.12 0.098,0.25 0.071,0.416 -0.682,4.311 -1.48,8.608 -2.291,12.888 -0.458,2.454 -0.924,4.905 -1.39,7.355 -0.206,1.105 -1.483,4.391 -1.049,5.514 1.179,3.006 9.313,3.913 12.318,4.814 4.767,1.424 9.534,2.871 14.296,4.304 18.091,5.456 36.366,10.523 54.315,16.421 C -0.255,-0.519 -0.067,-0.269 0,0"
             style="fill:#90dae4;fill-opacity:1;fill-rule:nonzero;stroke:none"
             id="path188" />
        </g>
        <g
           id="g190"
           transform="translate(73.1124,81.1989)">
          <path
             d="M 0,0 C 0.067,0.022 0.139,-0.009 0.183,-0.054 1.033,-1.06 2.041,-3.72 0.104,-4.23 c -0.813,-0.207 -1.663,0.33 -2.048,1.032 -0.555,1.019 -0.207,2.222 0.137,3.256 0.045,0.156 0.268,0.067 0.233,-0.085 -0.17,-0.869 -0.447,-1.924 -0.035,-2.769 0.314,-0.671 1.262,-1.336 1.95,-0.724 0.461,0.399 0.393,1.07 0.25,1.602 -0.081,0.317 -0.201,0.626 -0.341,0.926 -0.062,0.125 -0.125,0.25 -0.188,0.375 -0.174,0.393 -0.25,0.21 -0.236,-0.555 0.107,-0.102 -0.058,-0.286 -0.17,-0.196 C -0.881,-0.944 -0.64,-0.152 0,0"
             style="fill:#1d1d1b;fill-opacity:1;fill-rule:nonzero;stroke:none"
             id="path192" />
        </g>
        <g
           id="g194"
           transform="translate(67.233,87.5378)">
          <path
             d="M 0,0 C 2.324,-6.586 4.496,-13.316 5.796,-20.18 5.828,-20.354 5.582,-20.399 5.533,-20.233 3.646,-13.518 1.895,-6.802 -0.403,-0.201 -0.501,0.062 -0.103,0.272 0,0"
             style="fill:#1d1d1b;fill-opacity:1;fill-rule:nonzero;stroke:none"
             id="path196" />
        </g>
        <g
           id="g198"
           transform="translate(87.0109,36.8376)">
          <path
             d="m 0,0 c -5.567,17.331 -10.356,34.94 -15.383,52.441 -0.094,0.3 0.384,0.395 0.47,0.09 C -9.775,35.075 -4.374,17.649 0.214,0.04 0.25,-0.099 0.044,-0.134 0,0"
             style="fill:#1d1d1b;fill-opacity:1;fill-rule:nonzero;stroke:none"
             id="path200" />
        </g>
        <g
           id="g202"
           transform="translate(63.7819,93.5378)">
          <path
             d="M 0,0 C 2.366,-9.641 4.924,-19.397 8.243,-28.752 8.314,-28.962 8.015,-29.123 7.93,-28.908 4.204,-19.591 2.143,-9.73 -0.783,-0.157 -0.926,0.33 -0.13,0.505 0,0"
             style="fill:#1d1d1b;fill-opacity:1;fill-rule:nonzero;stroke:none"
             id="path204" />
        </g>
        <g
           id="g206"
           transform="translate(74.7267,72.3893)">
          <path
             d="m 0,0 c 3.57,-12.717 6.939,-25.456 10.899,-38.057 0.157,-0.492 -0.63,-0.639 -0.783,-0.157 C 6.103,-25.685 2.367,-12.95 -0.25,-0.058 -0.277,0.107 -0.045,0.157 0,0"
             style="fill:#1d1d1b;fill-opacity:1;fill-rule:nonzero;stroke:none"
             id="path208" />
        </g>
        <g
           id="g210"
           transform="translate(74.9064,60.5925)">
          <path
             d="m 0,0 c -0.107,0.259 -0.443,0.841 -0.747,0.912 -0.707,0.16 -0.366,-1.145 -0.174,-1.418 0.116,-0.165 -0.107,-0.367 -0.241,-0.21 -0.515,0.648 -0.546,1.493 -0.055,2.164 0.063,0.099 0.17,0.13 0.277,0.094 2.29,-0.643 2.167,-3.992 -0.185,-4.454 -0.836,-0.161 -1.557,0.138 -2.049,0.652 2.902,-7.584 5.079,-15.463 6.027,-23.52 0.004,-0.032 -0.045,-0.045 -0.054,-0.005 -2.197,10.776 -5.015,21.164 -9.621,31.193 -0.108,0.237 0.259,0.42 0.366,0.184 0.922,-2.044 1.8,-4.11 2.633,-6.197 0.004,0.617 0.259,1.248 0.853,1.712 0.206,0.17 0.465,-0.125 0.278,-0.308 -1.435,-1.378 -0.039,-3.9 1.893,-2.978 C 0.042,-1.78 0.358,-0.85 0,0"
             style="fill:#1d1d1b;fill-opacity:1;fill-rule:nonzero;stroke:none"
             id="path212" />
        </g>
        <g
           id="g214"
           transform="translate(70.3956,84.9499)">
          <path
             d="m 0,0 c -1.504,3.407 -2.342,7.092 -2.71,10.776 -0.014,0.05 0.004,0.081 0.022,0.113 -2.536,-0.878 -5.066,-1.743 -7.62,-2.584 6.589,-21.518 11.756,-43.545 17.12,-65.407 3.027,1.438 6.063,2.879 9.094,4.307 4.082,1.943 4.154,2.471 2.644,6.691 -2.095,5.863 -4.039,11.779 -5.889,17.73 -4.125,13.289 -7.732,26.748 -11.329,40.19 -0.05,0.188 -0.023,0.335 0.017,0.479 -1.261,-0.453 -2.531,-0.887 -3.8,-1.321 0.044,-0.023 0.076,-0.063 0.085,-0.125 C -1.823,7.173 -0.802,3.725 0.492,0.246 0.622,-0.08 0.144,-0.331 0,0 m 47.076,43.215 c -0.045,-0.18 -0.18,-0.269 -0.331,-0.3 C 45.82,40.182 43.55,37.502 42.03,35.108 39.863,31.687 37.709,28.26 35.479,24.873 35.148,24.372 34.554,24.533 34.308,24.913 23.916,20.65 13.315,16.54 2.579,12.72 2.793,12.626 2.964,12.443 3.04,12.156 c 5.676,-21.19 11.406,-42.377 19.077,-62.949 0.161,-0.434 0.072,-0.948 -0.388,-1.167 -5.044,-2.391 -10.079,-4.777 -15.122,-7.168 -0.527,-0.241 -1.105,0.063 -1.234,0.612 -0.063,0.238 -0.126,0.475 -0.18,0.716 -2.531,-0.059 -3.811,1.694 -4.706,4.22 -2.284,6.438 -3.321,13.625 -4.925,20.269 -3.244,13.451 -6.52,26.897 -9.818,40.343 -11.581,-3.718 -23.261,-7.014 -34.958,-9.717 -0.21,-0.049 -0.358,0.023 -0.456,0.152 -4.54,-0.158 -6.371,4.192 -7.231,8.011 -1.744,7.75 -2.754,15.753 -4.077,23.58 -0.054,0.308 0.116,0.572 0.353,0.702 -0.054,0.241 0.044,0.514 0.357,0.603 28.426,7.666 56.726,15.158 84.74,24.272 -0.268,0.38 0.291,0.849 0.657,0.496 0.05,-0.054 0.108,-0.103 0.157,-0.156 0.067,0.045 0.152,0.053 0.241,0.031 5.909,-1.393 12.032,-3.236 17.588,-5.711 2.652,-1.189 4.675,-3.017 3.961,-6.08 m -19.874,8.827 c -0.587,0.501 -1.15,1.023 -1.696,1.556 -0.058,-0.041 -0.108,-0.077 -0.183,-0.104 -27.616,-9.463 -56.068,-18.125 -84.705,-23.939 1.548,-0.613 2.667,-1.395 3.754,-2.696 0.103,0.085 0.219,0.144 0.344,0.184 27.289,8.26 54.485,17.133 81.976,24.677 0.125,0.04 0.237,0.04 0.344,0.027 0.036,0.107 0.085,0.21 0.166,0.295 m 19.019,-7.5 c -0.485,3.963 -7.713,5.377 -10.571,6.372 -3.167,1.099 -6.369,2.135 -9.541,3.242 0.591,-0.576 1.155,-1.166 1.696,-1.778 0.098,0.004 0.197,0.009 0.313,-0.023 5.47,-1.411 13.718,-3.701 18.103,-7.813 M -8.337,11.248 C 5.82,15.986 19.748,21.27 33.712,26.55 c 0.398,0.142 0.756,0.009 0.993,-0.241 1.626,2.714 3.297,5.408 4.964,8.11 1.216,1.95 4.05,4.89 4.438,7.153 0.896,5.157 -12.566,8.057 -16.498,9.119 -0.067,-0.268 -0.255,-0.518 -0.59,-0.63 C 9.071,44.162 -9.205,39.096 -27.296,33.64 c -4.762,-1.434 -9.529,-2.88 -14.295,-4.305 -3.005,-0.9 -11.139,-1.808 -12.319,-4.814 -0.433,-1.123 0.843,-4.409 1.049,-5.513 0.466,-2.45 0.933,-4.902 1.39,-7.356 0.812,-4.28 1.61,-8.577 2.292,-12.887 0.027,-0.166 -0.009,-0.296 -0.071,-0.416 13.588,4.442 27.352,8.358 40.913,12.899 M -50.525,-1.496 c -1.981,8.917 -3.604,17.923 -5.322,26.893 -0.103,0.027 -0.205,0.076 -0.29,0.179 -4.283,5.07 -2.746,-0.815 -2.275,-3.588 0.417,-2.441 0.839,-4.892 1.247,-7.338 0.919,-5.388 0.977,-13.747 6.64,-16.146 m 39.171,9.455 c -0.51,-0.165 -1.024,-0.322 -1.534,-0.488 2.461,-10.366 4.912,-20.735 7.408,-31.082 1.286,-5.362 2.572,-10.723 3.862,-16.071 0.816,-3.394 1.985,-15.67 6.529,-16.996 -5.31,21.576 -11.282,42.999 -16.265,64.637"
             style="fill:#1d1d1b;fill-opacity:1;fill-rule:nonzero;stroke:none"
             id="path216" />
        </g>
        <g
           id="g218"
           transform="translate(619.9528,417.9987)">
          <path
             d="M 0,0 C 3.32,-2.096 6.666,-4.155 10.025,-6.195 2.647,-9.486 -4.686,-13.229 -11.398,-17.77 -7.135,-12.151 -3.293,-6.237 0,0"
             style="fill:#e1f5f8;fill-opacity:1;fill-rule:nonzero;stroke:none"
             id="path220" />
        </g>
        <g
           id="g222"
           transform="translate(618.7877,419.1506)">
          <path
             d="m 0,0 c -3.646,-6.58 -7.641,-12.845 -12.187,-18.806 -0.46,10.61 -1.828,21.242 -4.856,31.431 16.235,3.868 32.185,9.355 47.998,14.68 14.304,4.819 28.704,9.674 42.764,15.237 C 49.529,28.584 24.957,15.047 1.339,0.167 0.995,0.51 0.306,0.562 0,0"
             style="fill:#e1f5f8;fill-opacity:1;fill-rule:nonzero;stroke:none"
             id="path224" />
        </g>
        <g
           id="g226"
           transform="translate(650.1608,447.9909)">
          <path
             d="m 0,0 c -16.124,-5.441 -32.54,-10.05 -48.611,-15.62 -0.085,-0.028 -0.124,-0.083 -0.155,-0.15 -0.058,0.009 -0.109,0.007 -0.172,-0.004 -6.471,4.035 -13.065,8.067 -19.817,11.638 19.496,3.146 38.82,7.671 58.271,11.126 18.028,3.2 36.101,6.09 54.21,8.742 C 29.157,10.487 14.697,4.953 0,0"
             style="fill:#f6f6f6;fill-opacity:1;fill-rule:nonzero;stroke:none"
             id="path228" />
        </g>
        <g
           id="g230"
           transform="translate(695.1256,461.7014)">
          <path
             d="m 0,0 c -16.988,-17.979 -33.175,-36.692 -48.506,-56.117 -0.334,-0.416 -0.199,-0.87 0.102,-1.167 -0.174,-0.217 -0.348,-0.434 -0.513,-0.663 -8.103,5.448 -16.521,10.75 -25.289,15.042 C -49.058,-29.433 -24.63,-14.408 0,0"
             style="fill:#f6f6f6;fill-opacity:1;fill-rule:nonzero;stroke:none"
             id="path232" />
        </g>
        <g
           id="g234"
           transform="translate(579.858,444.6691)">
          <path
             d="m 0,0 c 19.194,5.151 39.108,8.326 58.656,11.828 20.379,3.652 40.826,6.941 61.314,9.89 0.722,0.105 1.338,-0.864 0.8,-1.432 -18.334,-19.155 -35.749,-39.143 -52.183,-59.953 -0.112,-0.963 -0.673,-1.962 -1.523,-2.444 -0.197,-0.446 -0.791,-0.773 -1.336,-0.43 -4.645,2.988 -9.358,5.854 -14.069,8.731 -8.624,-3.856 -16.73,-8.465 -24.922,-13.162 -0.024,-0.027 -0.049,-0.054 -0.074,-0.091 -0.397,-0.507 -1.399,-0.309 -1.425,0.412 -0.335,11.117 -1.965,21.96 -3.998,32.872 -0.08,0.002 -0.169,0.015 -0.252,0.068 C 13.996,-9.71 6.924,-5.567 0.263,-1.029 0.098,-1.055 -0.058,-1.083 -0.212,-1.101 -0.74,-1.185 -0.979,-0.402 -0.561,-0.17 -0.493,0.012 -0.301,0.155 -0.093,0.054 -0.066,0.03 -0.028,0.014 0,0 M 115.268,17.032 C 90.638,2.624 66.21,-12.4 41.062,-25.873 c 8.768,-4.292 17.186,-9.594 25.289,-15.042 0.165,0.229 0.338,0.446 0.512,0.663 -0.3,0.297 -0.435,0.752 -0.101,1.168 15.331,19.424 31.517,38.138 48.506,56.116 M 1.548,-0.814 c 6.752,-3.571 13.346,-7.603 19.817,-11.639 0.063,0.012 0.114,0.014 0.172,0.005 0.03,0.067 0.069,0.122 0.154,0.15 16.072,5.569 32.488,10.179 48.612,15.62 C 85,8.275 99.46,13.809 114.028,19.054 95.92,16.402 77.847,13.512 59.818,10.312 40.368,6.857 21.044,2.332 1.548,-0.814 M 38.93,-25.519 c 0.305,0.562 0.995,0.511 1.339,0.167 23.618,14.881 48.19,28.418 72.379,42.375 C 98.589,11.461 84.188,6.605 69.885,1.786 54.071,-3.539 38.122,-9.025 21.887,-12.893 c 3.028,-10.19 4.395,-20.822 4.856,-31.432 4.546,5.962 8.54,12.227 12.187,18.806 m 11.19,-7.347 c -3.359,2.041 -6.705,4.1 -10.025,6.196 -3.293,-6.238 -7.135,-12.151 -11.399,-17.77 6.713,4.541 14.046,8.283 21.424,11.574"
             style="fill:#1d1d1b;fill-opacity:1;fill-rule:nonzero;stroke:none"
             id="path236" />
        </g>
        <g
           id="g238"
           transform="translate(131.5363,439.1164)">
          <path
             d="m 0,0 c -10.33,13.68 -19.53,28 -28.46,42.61 2.13,0.08 5.96,-2.55 7.41,-3.27 2.66,-1.33 5.31,-2.66 7.97,-3.99 C -7.47,32.55 -1.89,29.7 3.75,26.96 4.1,26.79 4.44,26.88 4.67,27.08 9.4,21.1 12.83,15.27 16.21,8.44 18.95,2.88 22.18,-2.55 26.04,-7.42 21.44,-5.53 16.76,-3.79 12.13,-1.97 9.37,-0.89 4.27,2.68 1.44,0.73 1,0.43 0.61,-0.06 0.26,-0.64 L 0,-0.48 c 0.11,0.13 0.13,0.3 0,0.48"
             style="fill:#6bcddb;fill-opacity:1;fill-rule:nonzero;stroke:none"
             id="path240" />
        </g>
        <g
           id="g242"
           transform="translate(86.3361,450.0764)">
          <path
             d="m 0,0 c -0.11,0.17 -0.3,0.15 -0.42,0.05 0,0.06 -0.01,0.11 -0.02,0.16 0.18,-0.11 0.41,-0.09 0.55,0.16 2.9,5.05 5.47,10.28 8.08,15.49 1.31,2.6 2.62,5.21 3.92,7.81 0.75,1.49 2.56,7.14 3.92,7.82 0.08,0.05 0.18,0.07 0.27,0.1 8.1,-15.08 17.8,-29.37 28.1,-43.02 0.22,-0.29 0.62,-0.22 0.8,-0.01 l 0.26,-0.16 c -0.9,-1.44 -1.58,-3.47 -2.19,-4.6 -1.56,-2.85 -3.1,-5.72 -4.63,-8.59 -3.05,-5.73 -6.11,-11.49 -8.83,-17.39 H 29.8 l -0.66,0.31 c 0.04,0.08 0.05,0.18 -0.02,0.27 C 18.84,-28.09 9.07,-14.36 0,0"
             style="fill:#46c1d2;fill-opacity:1;fill-rule:nonzero;stroke:none"
             id="path244" />
        </g>
        <g
           id="g246"
           transform="translate(115.4865,406.4763)">
          <path
             d="m 0,0 c -7.1,2.55 -14.23,5.04 -21.39,7.41 -3.65,1.2 -7.3,2.39 -10.96,3.54 -1.75,0.56 -4.99,2.3 -7.08,1.95 l -0.02,0.11 c 0.24,0 0.46,0.3 0.23,0.5 -13.2,11.35 -19.89,28.24 -30.36,41.94 0.81,0.13 1.76,0.09 2.91,-0.16 5.78,-1.25 11.59,-3.98 17.19,-5.91 6.33,-2.18 12.62,-4.5 19.01,-6.5 0.44,-0.14 0.74,0.1 0.85,0.42 8.81,-14.43 18.48,-28.51 29.11,-41.67 0.14,-0.18 0.41,-0.08 0.5,0.1 L 0.65,1.42 C 0.43,0.95 0.21,0.47 0,0"
             style="fill:#6bcddb;fill-opacity:1;fill-rule:nonzero;stroke:none"
             id="path248" />
        </g>
        <g
           id="g250"
           transform="translate(75.7062,419.3063)">
          <path
             d="m 0,0 c -1.41,-0.42 -1.66,-1.28 -2.38,-2.56 -1.85,-3.34 -3.34,-6.99 -4.9,-10.47 -2.97,-6.63 -5.76,-13.34 -8.04,-20.23 -13.67,14.74 -25.17,30.79 -36.58,47.29 -0.09,0.13 -0.19,0.19 -0.31,0.21 l 0.01,0.13 c 0.19,0 0.39,0.09 0.53,0.3 3.22,5.03 6.39,10.08 9.89,14.93 2.05,2.86 4.18,5.66 6.37,8.4 1.83,2.28 3.08,4.02 5.18,4.53 5.39,-7.4 10.37,-14.99 14.98,-22.92 C -10.99,12.29 -6.35,5.8 0.13,0.26 0.19,0.21 0.26,0.18 0.33,0.18 L 0.35,0.07 C 0.23,0.06 0.11,0.03 0,0"
             style="fill:#46c1d2;fill-opacity:1;fill-rule:nonzero;stroke:none"
             id="path252" />
        </g>
        <g
           id="g254"
           transform="translate(23.4962,433.5461)">
          <path
             d="m 0,0 c -0.35,0.07 -0.74,-0.27 -0.51,-0.68 9.94,-17.71 23.28,-33.95 37.12,-48.73 0.42,-0.45 1.01,-0.18 1.2,0.26 l 2.45,-1.1 c -1.29,-2.86 -2.57,-5.71 -3.86,-8.57 -13.81,19.22 -27.18,38.93 -41.86,57.5 2.44,3.61 4.83,7.24 7.21,10.89 L 3.73,8.28 C 2.22,5.92 0.79,3.52 -0.56,1.07 -0.84,0.57 -0.42,0.13 0.01,0.13 Z"
             style="fill:#ffffff;fill-opacity:1;fill-rule:nonzero;stroke:none"
             id="path256" />
        </g>
        <g
           id="g258"
           transform="translate(168.5363,423.5363)">
          <path
             d="m 0,0 c -10.9,3.32 -21.72,6.85 -32.45,10.66 -0.35,0.13 -0.81,-0.08 -0.98,-0.4 -3.95,-7.38 -7.9,-14.75 -11.81,-22.15 -0.91,-1.7 -1.81,-3.41 -2.7,-5.13 -0.65,-1.25 -2.57,-3.69 -2.62,-5.17 -0.01,-0.31 -0.04,-0.54 -0.06,-0.73 -13.19,4.62 -26.56,8.63 -40.12,12.02 -0.35,0.09 -0.85,-0.05 -1.01,-0.41 -4.34,-9.64 -8.69,-19.29 -13.03,-28.93 l -2.45,1.1 c 0.1,0.24 0.09,0.54 -0.15,0.79 -0.03,0.03 -0.06,0.07 -0.09,0.1 2.56,5.83 4.97,11.73 7.55,17.55 1.3,2.93 2.64,5.85 4.01,8.76 1.72,3.62 2.06,6.27 6.42,5.42 5.81,-1.14 11.71,-3.78 17.32,-5.68 6.37,-2.16 12.71,-4.37 19.03,-6.65 0.88,-0.32 1.32,0.81 0.82,1.4 5.47,9.43 10.4,19.18 15.66,28.72 1.58,2.85 1.85,4.17 5.14,3.25 2.41,-0.67 4.79,-1.89 7.12,-2.81 5.33,-2.1 10.63,-4.34 16.03,-6.24 0.79,-0.28 1.36,1.02 0.58,1.36 -0.36,0.15 -0.72,0.3 -1.08,0.45 0.11,0.2 0.14,0.45 -0.02,0.68 -4.32,6.21 -8.37,12.36 -11.61,19.23 -1.34,2.83 -2.77,5.39 -4.37,7.8 l 1.19,0.81 C -15.71,23.92 -7.87,11.95 0,0"
             style="fill:#ffffff;fill-opacity:1;fill-rule:nonzero;stroke:none"
             id="path260" />
        </g>
        <g
           id="g262"
           transform="translate(105.9962,482.506)">
          <path
             d="M 0,0 C -0.75,0.37 -2.61,1.64 -3.68,1.22 -4.7,0.82 -4.95,-0.11 -5.45,-1 c -1.75,-3.08 -3.18,-6.4 -4.75,-9.58 -3.45,-6.97 -7.04,-13.89 -10.1,-21.04 -0.03,-0.08 -0.04,-0.15 -0.03,-0.22 -0.07,0.06 -0.15,0.11 -0.25,0.15 -7.16,2.68 -14.47,5 -21.71,7.48 -3.62,1.24 -7.24,2.49 -10.86,3.73 -2.07,0.71 -5.57,2.71 -7.91,2.18 -1.8,-0.4 -2.98,-2.43 -4.03,-3.72 -1.95,-2.35 -3.83,-4.75 -5.67,-7.19 -2.79,-3.72 -5.5,-7.54 -8.01,-11.47 l -1.98,1.29 c 1.21,1.87 2.43,3.74 3.64,5.62 1.8,2.8 3.6,5.59 5.4,8.38 2.18,3.39 3.97,7.9 7.81,9.25 5.46,1.92 14.49,-2.56 20.02,-4.25 6.46,-1.97 12.89,-4.03 19.29,-6.17 0.37,-0.13 0.8,0.08 0.99,0.4 3.61,6.04 7.15,12.13 10.6,18.27 1.57,2.8 3.11,5.6 4.64,8.41 0.39,0.72 2.03,4.71 2.73,5.08 1.42,0.75 2.17,-0.26 3.39,-1.03 10.29,-6.5 21.28,-11.74 32.72,-15.85 0.13,-0.05 0.25,-0.06 0.35,-0.05 2.69,-3.93 5.37,-7.88 8.03,-11.84 l -1.19,-0.81 c -2.03,3.03 -4.32,5.84 -7.03,8.69 -0.12,0.13 -0.25,0.17 -0.37,0.15 -0.05,0.05 -0.09,0.09 -0.15,0.13 C 23.36,-11.56 16.54,-8.23 9.75,-4.85 6.5,-3.23 3.25,-1.61 0,0"
             style="fill:#ffffff;fill-opacity:1;fill-rule:nonzero;stroke:none"
             id="path264" />
        </g>
        <g
           id="g266"
           transform="translate(85.9162,450.1262)">
          <path
             d="m 0,0 c 0.12,0.1 0.31,0.12 0.42,-0.05 9.07,-14.36 18.84,-28.09 29.12,-41.6 0.07,-0.09 0.06,-0.19 0.02,-0.27 -0.09,-0.18 -0.36,-0.28 -0.5,-0.1 -10.63,13.16 -20.3,27.24 -29.11,41.67 -0.11,-0.32 -0.41,-0.56 -0.85,-0.42 -6.39,2 -12.68,4.32 -19.01,6.5 -5.6,1.93 -11.41,4.66 -17.19,5.91 -1.15,0.25 -2.1,0.29 -2.91,0.16 10.47,-13.7 17.16,-30.59 30.36,-41.94 0.23,-0.2 0.01,-0.5 -0.23,-0.5 -0.07,0 -0.14,0.03 -0.2,0.08 -6.48,5.54 -11.12,12.03 -15.38,19.35 -4.61,7.93 -9.59,15.52 -14.98,22.92 -2.1,-0.51 -3.35,-2.25 -5.18,-4.53 -2.19,-2.74 -4.32,-5.54 -6.37,-8.4 -3.5,-4.85 -6.67,-9.9 -9.89,-14.93 -0.14,-0.21 -0.34,-0.3 -0.53,-0.3 -0.43,0 -0.85,0.44 -0.57,0.94 1.35,2.45 2.78,4.85 4.29,7.21 2.51,3.93 5.22,7.75 8.01,11.47 1.84,2.44 3.72,4.84 5.67,7.19 1.05,1.29 2.23,3.32 4.03,3.72 2.34,0.53 5.84,-1.47 7.91,-2.18 3.62,-1.24 7.24,-2.49 10.86,-3.73 7.24,-2.48 14.55,-4.8 21.71,-7.48 0.1,-0.04 0.18,-0.09 0.25,-0.15 -0.01,0.07 0,0.14 0.03,0.22 3.06,7.15 6.65,14.07 10.1,21.04 1.57,3.18 3,6.5 4.75,9.58 0.5,0.89 0.75,1.82 1.77,2.22 1.07,0.42 2.93,-0.85 3.68,-1.22 3.25,-1.61 6.5,-3.23 9.75,-4.85 6.79,-3.38 13.61,-6.71 20.37,-10.16 0.06,-0.04 0.1,-0.08 0.15,-0.13 0.12,0.02 0.25,-0.02 0.37,-0.15 2.71,-2.85 5,-5.66 7.03,-8.69 1.6,-2.41 3.03,-4.97 4.37,-7.8 3.24,-6.87 7.29,-13.02 11.61,-19.23 0.16,-0.23 0.13,-0.48 0.02,-0.68 0.36,-0.15 0.72,-0.3 1.08,-0.45 0.78,-0.34 0.21,-1.64 -0.58,-1.36 -5.4,1.9 -10.7,4.14 -16.03,6.24 -2.33,0.92 -4.71,2.14 -7.12,2.81 -3.29,0.92 -3.56,-0.4 -5.14,-3.25 -5.26,-9.54 -10.19,-19.29 -15.66,-28.72 0.5,-0.59 0.06,-1.72 -0.82,-1.4 -6.32,2.28 -12.66,4.49 -19.03,6.65 -5.61,1.9 -11.51,4.54 -17.32,5.68 -4.36,0.85 -4.7,-1.8 -6.42,-5.42 -1.37,-2.91 -2.71,-5.83 -4.01,-8.76 -2.58,-5.82 -4.99,-11.72 -7.55,-17.55 0.03,-0.03 0.06,-0.07 0.09,-0.1 0.24,-0.25 0.25,-0.55 0.15,-0.79 -0.19,-0.44 -0.78,-0.71 -1.2,-0.26 -13.84,14.78 -27.18,31.02 -37.12,48.73 -0.23,0.41 0.16,0.75 0.51,0.68 0.12,-0.02 0.22,-0.08 0.31,-0.21 11.41,-16.5 22.91,-32.55 36.58,-47.29 2.28,6.89 5.07,13.6 8.04,20.23 1.56,3.48 3.05,7.13 4.9,10.47 0.72,1.28 0.97,2.14 2.38,2.56 0.11,0.03 0.23,0.06 0.35,0.07 2.09,0.35 5.33,-1.39 7.08,-1.95 3.66,-1.15 7.31,-2.34 10.96,-3.54 7.16,-2.37 14.29,-4.86 21.39,-7.41 0.21,0.47 0.43,0.95 0.65,1.42 h 0.01 c 2.72,5.9 5.78,11.66 8.83,17.39 1.53,2.87 3.07,5.74 4.63,8.59 0.61,1.13 1.29,3.16 2.19,4.6 0.35,0.58 0.74,1.07 1.18,1.37 2.83,1.95 7.93,-1.62 10.69,-2.7 4.63,-1.82 9.31,-3.56 13.91,-5.45 -3.86,4.87 -7.09,10.3 -9.83,15.86 -3.38,6.83 -6.81,12.66 -11.54,18.64 -0.23,-0.2 -0.57,-0.29 -0.92,-0.12 -5.64,2.74 -11.22,5.59 -16.83,8.39 -2.66,1.33 -5.31,2.66 -7.97,3.99 -1.45,0.72 -5.28,3.35 -7.41,3.27 8.93,-14.61 18.13,-28.93 28.46,-42.61 0.13,-0.18 0.11,-0.35 0,-0.48 -0.18,-0.21 -0.58,-0.28 -0.8,0.01 -10.3,13.65 -20,27.94 -28.1,43.02 -0.09,-0.03 -0.19,-0.05 -0.27,-0.1 C 15.09,30.76 13.28,25.11 12.53,23.62 11.23,21.02 9.92,18.41 8.61,15.81 6,10.6 3.43,5.37 0.53,0.32 0.39,0.07 0.16,0.05 -0.02,0.16 -0.01,0.11 0,0.06 0,0"
             style="fill:#1d1d1b;fill-opacity:1;fill-rule:nonzero;stroke:none"
             id="path268" />
        </g>
        <g
           id="g270"
           transform="translate(100.3663,488.1061)">
          <path
             d="m 0,0 c -0.7,-0.37 -2.34,-4.36 -2.73,-5.08 -1.53,-2.81 -3.07,-5.61 -4.64,-8.41 -3.45,-6.14 -6.99,-12.23 -10.6,-18.27 -0.19,-0.32 -0.62,-0.53 -0.99,-0.4 -6.4,2.14 -12.83,4.2 -19.29,6.17 -5.53,1.69 -14.56,6.17 -20.02,4.25 -3.84,-1.35 -5.63,-5.86 -7.81,-9.25 -1.8,-2.79 -3.6,-5.58 -5.4,-8.38 -1.21,-1.88 -2.43,-3.75 -3.64,-5.62 -2.38,-3.65 -4.77,-7.28 -7.21,-10.89 14.68,-18.57 28.05,-38.28 41.86,-57.5 1.29,2.86 2.57,5.71 3.86,8.57 4.34,9.64 8.69,19.29 13.03,28.93 0.16,0.36 0.66,0.5 1.01,0.41 13.56,-3.39 26.93,-7.4 40.12,-12.02 0.02,0.19 0.05,0.42 0.06,0.73 0.05,1.48 1.97,3.92 2.62,5.17 0.89,1.72 1.79,3.43 2.7,5.13 3.91,7.4 7.86,14.77 11.81,22.15 0.17,0.32 0.63,0.53 0.98,0.4 10.73,-3.81 21.55,-7.34 32.45,-10.66 -7.87,11.95 -15.71,23.92 -23.68,35.8 -2.66,3.96 -5.34,7.91 -8.03,11.84 -0.1,-0.01 -0.22,0 -0.35,0.05 C 24.67,-12.77 13.68,-7.53 3.39,-1.03 2.17,-0.26 1.42,0.75 0,0 m -16.55,-25.92 c 5.52,9.39 10.81,18.9 15.92,28.51 0.21,0.41 0.82,0.58 1.21,0.32 11.26,-7.47 23.28,-13.52 36,-18.1 0.45,-0.16 0.61,-0.55 0.58,-0.93 0.03,-0.02 0.06,-0.03 0.08,-0.06 12.58,-15.53 22.9,-33.02 33.87,-49.71 0.56,-0.86 -0.66,-1.65 -1.33,-1.05 -5.8,1.74 -11.57,3.55 -17.32,5.44 -2.73,0.9 -5.45,1.82 -8.17,2.75 -2.02,0.69 -6.08,2.97 -8.1,2.19 -2.68,-1.02 -17.61,-31.68 -17.39,-31.82 0.05,-0.03 0.06,-0.1 0.02,-0.14 -0.08,-0.08 -0.16,-0.16 -0.25,-0.24 -0.03,-0.03 -0.07,-0.05 -0.12,-0.07 -0.13,-0.4 -0.5,-0.69 -1.02,-0.51 -6.65,2.33 -13.34,4.54 -20.09,6.56 -3.37,1.01 -6.76,1.98 -10.16,2.92 -2.33,0.63 -7.01,2.85 -9.18,1.75 -2.28,-1.14 -3.74,-6.91 -4.8,-9.26 -1.33,-2.94 -2.65,-5.89 -3.98,-8.83 -2.91,-6.47 -5.82,-12.94 -8.74,-19.41 -0.3,-0.67 -1.19,-0.48 -1.54,0 -14.13,19.61 -28.96,38.91 -42.2,59.13 -0.08,0.13 -0.1,0.26 -0.07,0.38 -0.13,0.15 -0.19,0.37 -0.05,0.61 6.03,9.94 12.33,19.72 18.58,29.52 1.62,2.52 3.12,6.58 6.48,7.08 3.43,0.51 8.04,-1.8 11.28,-2.72 5.56,-1.59 11.1,-3.25 16.62,-4.99 2.46,-0.77 4.9,-1.55 7.35,-2.36 3.78,-1.24 4.52,-0.37 6.52,3.04"
             style="fill:#1d1d1b;fill-opacity:1;fill-rule:nonzero;stroke:none"
             id="path272" />
        </g>
        <g
           id="g274"
           transform="translate(656.0983,44.2243)">
          <path
             d="m 0,0 c 0.899,17.118 3.076,33.999 5.646,50.929 1.682,-1.311 2.92,-5.788 3.567,-7.273 1.18,-2.73 2.351,-5.454 3.531,-8.183 2.49,-5.754 4.927,-11.527 7.479,-17.254 0.159,-0.356 0.476,-0.506 0.782,-0.5 -0.23,-7.621 -1.358,-14.291 -3.167,-21.694 -1.483,-6.018 -2.505,-12.254 -2.686,-18.464 -2.304,4.407 -4.765,8.751 -7.137,13.124 -1.417,2.603 -3.023,8.618 -6.444,8.947 -0.529,0.054 -1.143,-0.07 -1.784,-0.289 l -0.097,0.29 C -0.142,-0.339 -0.017,-0.222 0,0"
             style="fill:#6bcddb;fill-opacity:1;fill-rule:nonzero;stroke:none"
             id="path276" />
        </g>
        <g
           id="g278"
           transform="translate(628.5612,81.7067)">
          <path
             d="m 0,0 c 0.025,0.2 -0.133,0.308 -0.289,0.309 0.039,0.045 0.063,0.089 0.088,0.134 0.066,-0.2 0.256,-0.333 0.523,-0.231 5.47,1.998 10.804,4.347 16.155,6.653 2.675,1.147 5.358,2.301 8.027,3.454 1.533,0.658 6.555,3.817 8.033,3.461 0.094,-0.012 0.183,-0.062 0.272,-0.096 -3.508,-16.755 -5.284,-33.935 -6.187,-51.011 -0.018,-0.363 0.333,-0.568 0.606,-0.523 l 0.096,-0.29 c -1.616,-0.522 -3.443,-1.638 -4.637,-2.11 -3.029,-1.177 -6.054,-2.383 -9.073,-3.594 -6.022,-2.422 -12.071,-4.86 -17.951,-7.625 l -0.008,0.007 -0.305,0.662 c 0.083,0.035 0.154,0.106 0.159,0.219 C -3.662,-33.625 -2.302,-16.828 0,0"
             style="fill:#46c1d2;fill-opacity:1;fill-rule:nonzero;stroke:none"
             id="path280" />
        </g>
        <g
           id="g282"
           transform="translate(622.8053,29.5759)">
          <path
             d="m 0,0 c -3.792,6.521 -7.646,13.017 -11.6,19.439 -2.021,3.268 -4.048,6.528 -6.109,9.764 -0.978,1.555 -2.339,4.973 -4.163,6.05 l 0.056,0.097 c 0.183,-0.155 0.545,-0.067 0.498,0.234 -2.797,17.184 2.955,34.415 3.76,51.639 0.704,-0.422 1.406,-1.064 2.124,-1.995 3.62,-4.677 6.309,-10.506 9.352,-15.588 C -2.641,63.896 0.68,58.072 4.282,52.429 4.529,52.039 4.913,52.029 5.203,52.203 2.657,35.489 0.994,18.489 0.659,1.576 0.65,1.348 0.921,1.251 1.105,1.331 L 1.411,0.669 C 0.94,0.45 0.463,0.225 0,0"
             style="fill:#6bcddb;fill-opacity:1;fill-rule:nonzero;stroke:none"
             id="path284" />
        </g>
        <g
           id="g286"
           transform="translate(600.6198,65.0007)">
          <path
             d="m 0,0 c -1.349,0.586 -2.094,0.089 -3.469,-0.428 -3.565,-1.365 -7.055,-3.199 -10.489,-4.858 -6.54,-3.162 -12.995,-6.501 -19.175,-10.307 -0.973,20.079 0.557,39.765 2.446,59.737 0.014,0.157 -0.024,0.267 -0.103,0.36 l 0.092,0.093 c 0.145,-0.122 0.356,-0.182 0.598,-0.112 5.703,1.778 11.379,3.602 17.179,5.06 3.41,0.87 6.843,1.642 10.282,2.329 2.868,0.566 4.945,1.094 6.88,0.132 C 3.603,42.874 2.528,33.859 0.952,24.823 -0.499,16.479 -1.126,8.525 0.268,0.115 0.281,0.038 0.315,-0.03 0.369,-0.075 L 0.313,-0.172 C 0.215,-0.103 0.104,-0.048 0,0"
             style="fill:#46c1d2;fill-opacity:1;fill-rule:nonzero;stroke:none"
             id="path288" />
        </g>
        <g
           id="g290"
           transform="translate(569.8297,109.5046)">
          <path
             d="m 0,0 c -0.223,0.279 -0.739,0.27 -0.827,-0.192 -3.793,-19.952 -4.037,-40.966 -2.959,-61.186 0.031,-0.615 0.657,-0.788 1.086,-0.574 l 1.167,-2.418 c -2.828,-1.359 -5.643,-2.716 -8.471,-4.074 1.803,23.597 4.258,47.288 4.977,70.948 4.19,1.192 8.356,2.433 12.527,3.693 L 8.185,3.936 C 5.51,3.102 2.871,2.186 0.261,1.18 -0.275,0.977 -0.237,0.37 0.092,0.093 Z"
             style="fill:#ffffff;fill-opacity:1;fill-rule:nonzero;stroke:none"
             id="path292" />
        </g>
        <g
           id="g294"
           transform="translate(674.3854,8.485)">
          <path
             d="m 0,0 c -6.205,9.557 -12.213,19.223 -17.973,29.045 -0.183,0.325 -0.671,0.461 -1.006,0.325 -7.774,-3.105 -15.541,-6.203 -23.296,-9.349 -1.791,-0.715 -3.58,-1.445 -5.369,-2.189 -1.301,-0.538 -4.341,-1.169 -5.333,-2.269 -0.207,-0.232 -0.377,-0.388 -0.515,-0.521 -7.121,12.026 -14.772,23.701 -22.967,35.023 -0.21,0.294 -0.683,0.509 -1.037,0.337 -9.526,-4.584 -19.067,-9.17 -28.593,-13.753 l -1.167,2.418 c 0.231,0.121 0.416,0.356 0.394,0.702 -0.004,0.043 -0.001,0.092 -0.005,0.134 5.712,2.814 11.354,5.779 17.074,8.572 2.882,1.405 5.786,2.777 8.708,4.123 3.647,1.663 5.612,3.472 8.402,0.015 3.712,-4.612 6.529,-10.43 9.599,-15.496 3.484,-5.753 6.914,-11.525 10.283,-17.338 0.467,-0.811 1.531,-0.229 1.529,0.543 10.255,3.697 20.304,7.985 30.47,11.9 3.044,1.164 4.101,2.001 6.027,-0.822 1.413,-2.063 2.449,-4.529 3.639,-6.733 2.728,-5.038 5.342,-10.163 8.251,-15.094 0.425,-0.722 1.698,-0.094 1.32,0.668 -0.179,0.347 -0.358,0.694 -0.538,1.039 0.213,0.083 0.398,0.255 0.423,0.533 0.692,7.534 1.55,14.847 3.493,22.191 0.796,3.028 1.35,5.908 1.676,8.782 L 4.922,42.64 C 3.374,28.418 1.669,14.211 0,0"
             style="fill:#ffffff;fill-opacity:1;fill-rule:nonzero;stroke:none"
             id="path296" />
        </g>
        <g
           id="g298"
           transform="translate(664.4811,93.8698)">
          <path
             d="m 0,0 c -0.335,0.767 -0.941,2.936 -2.03,3.303 -1.038,0.35 -1.828,-0.2 -2.784,-0.56 -3.322,-1.23 -6.553,-2.851 -9.801,-4.274 -7.127,-3.114 -14.329,-6.099 -21.273,-9.601 -0.075,-0.042 -0.128,-0.089 -0.165,-0.149 -0.014,0.092 -0.044,0.181 -0.094,0.276 -3.755,6.659 -7.856,13.141 -11.8,19.698 -1.973,3.28 -3.939,6.567 -5.91,9.845 -1.127,1.876 -2.519,5.659 -4.651,6.761 -1.635,0.851 -3.845,0.057 -5.478,-0.253 -3.005,-0.544 -5.989,-1.17 -8.968,-1.854 -4.529,-1.05 -9.063,-2.229 -13.513,-3.622 l -0.684,2.262 c 2.129,0.652 4.266,1.298 6.402,1.958 3.181,0.984 6.353,1.961 9.527,2.938 3.851,1.191 8.123,3.49 11.931,2.051 5.414,-2.045 9.441,-11.286 12.586,-16.138 3.676,-5.666 7.27,-11.381 10.791,-17.139 0.199,-0.338 0.663,-0.454 1.015,-0.331 6.65,2.299 13.28,4.681 19.872,7.159 3.004,1.132 5.985,2.283 8.965,3.449 0.761,0.3 4.584,2.298 5.359,2.131 C 0.866,7.569 0.79,6.314 1.228,4.939 4.919,-6.658 9.956,-17.742 16.066,-28.252 c 0.067,-0.121 0.153,-0.206 0.236,-0.263 -0.471,-4.739 -0.963,-9.487 -1.476,-14.23 l -1.432,0.146 c 0.397,3.625 0.453,7.25 0.213,11.175 -0.008,0.177 -0.082,0.291 -0.186,0.354 -0.006,0.07 -0.011,0.127 -0.031,0.196 -2.953,6.991 -6.029,13.93 -9.05,20.887 C 2.896,-6.655 1.451,-3.324 0,0"
             style="fill:#ffffff;fill-opacity:1;fill-rule:nonzero;stroke:none"
             id="path300" />
        </g>
        <g
           id="g302"
           transform="translate(628.2721,82.0153)">
          <path
             d="m 0,0 c 0.156,-0.001 0.314,-0.108 0.289,-0.309 -2.302,-16.828 -3.662,-33.625 -4.491,-50.581 -0.005,-0.113 -0.076,-0.183 -0.159,-0.218 -0.185,-0.08 -0.455,0.016 -0.447,0.245 0.335,16.913 1.998,33.913 4.544,50.627 -0.29,-0.174 -0.673,-0.164 -0.921,0.225 -3.602,5.644 -6.922,11.468 -10.364,17.211 -3.043,5.082 -5.732,10.911 -9.351,15.588 -0.719,0.932 -1.42,1.573 -2.124,1.995 -0.806,-17.223 -6.558,-34.455 -3.761,-51.638 0.047,-0.301 -0.315,-0.389 -0.498,-0.235 -0.054,0.045 -0.088,0.113 -0.102,0.191 -1.393,8.41 -0.766,16.364 0.685,24.708 1.576,9.036 2.65,18.05 3.289,27.182 -1.936,0.962 -4.012,0.435 -6.88,-0.132 -3.439,-0.687 -6.872,-1.459 -10.282,-2.329 -5.8,-1.458 -11.477,-3.282 -17.179,-5.059 -0.242,-0.071 -0.453,-0.011 -0.599,0.111 -0.329,0.277 -0.367,0.884 0.169,1.087 2.611,1.006 5.249,1.922 7.924,2.756 4.45,1.392 8.984,2.571 13.513,3.622 2.979,0.683 5.963,1.309 8.968,1.853 1.633,0.311 3.843,1.105 5.478,0.253 2.132,-1.101 3.524,-4.884 4.651,-6.76 1.971,-3.279 3.937,-6.566 5.91,-9.845 3.944,-6.558 8.045,-13.039 11.8,-19.698 0.05,-0.095 0.08,-0.185 0.094,-0.277 0.037,0.061 0.09,0.108 0.165,0.15 6.944,3.502 14.146,6.487 21.273,9.6 3.248,1.423 6.479,3.044 9.801,4.275 0.956,0.359 1.746,0.91 2.784,0.559 1.089,-0.367 1.695,-2.536 2.03,-3.303 1.451,-3.324 2.895,-6.655 4.34,-9.987 3.021,-6.957 6.097,-13.895 9.05,-20.887 0.02,-0.069 0.025,-0.126 0.031,-0.196 0.104,-0.062 0.178,-0.177 0.186,-0.353 0.24,-3.925 0.184,-7.55 -0.213,-11.175 -0.327,-2.874 -0.88,-5.754 -1.676,-8.782 -1.944,-7.344 -2.802,-14.658 -3.493,-22.191 -0.026,-0.278 -0.21,-0.45 -0.423,-0.533 0.179,-0.346 0.358,-0.692 0.537,-1.039 0.378,-0.763 -0.895,-1.391 -1.319,-0.668 -2.91,4.931 -5.524,10.056 -8.251,15.094 -1.191,2.204 -2.227,4.67 -3.64,6.733 -1.926,2.822 -2.983,1.985 -6.026,0.821 -10.166,-3.915 -20.215,-8.203 -30.471,-11.899 0.003,-0.772 -1.062,-1.355 -1.528,-0.543 -3.37,5.813 -6.799,11.585 -10.284,17.338 -3.07,5.065 -5.886,10.884 -9.598,15.496 -2.79,3.457 -4.756,1.647 -8.403,-0.016 -2.922,-1.345 -5.826,-2.717 -8.708,-4.123 -5.719,-2.793 -11.362,-5.757 -17.074,-8.571 0.004,-0.042 10e-4,-0.092 0.005,-0.135 0.022,-0.345 -0.163,-0.581 -0.394,-0.701 -0.428,-0.214 -1.054,-0.041 -1.086,0.574 -1.078,20.22 -0.834,41.235 2.959,61.186 0.088,0.462 0.605,0.472 0.828,0.192 0.079,-0.093 0.117,-0.203 0.102,-0.36 -1.889,-19.972 -3.419,-39.657 -2.445,-59.736 6.18,3.805 12.635,7.144 19.175,10.306 3.433,1.659 6.923,3.493 10.489,4.859 1.375,0.516 2.12,1.013 3.469,0.427 0.103,-0.047 0.215,-0.102 0.313,-0.172 1.824,-1.077 3.185,-4.495 4.163,-6.049 2.061,-3.237 4.088,-6.496 6.11,-9.764 3.953,-6.423 7.807,-12.918 11.599,-19.439 0.463,0.224 0.941,0.45 1.411,0.668 l 0.008,-0.006 c 5.88,2.764 11.929,5.203 17.951,7.625 3.019,1.211 6.044,2.417 9.073,3.593 1.194,0.472 3.021,1.588 4.637,2.111 0.641,0.219 1.255,0.343 1.784,0.289 3.421,-0.329 5.027,-6.344 6.444,-8.947 2.372,-4.373 4.833,-8.717 7.138,-13.124 0.18,6.21 1.203,12.446 2.685,18.464 1.81,7.403 2.938,14.073 3.167,21.694 -0.306,-0.006 -0.623,0.144 -0.782,0.5 -2.552,5.727 -4.988,11.5 -7.479,17.254 -1.179,2.729 -2.351,5.453 -3.531,8.183 -0.646,1.485 -1.885,5.962 -3.566,7.273 -2.571,-16.93 -4.747,-33.811 -5.647,-50.929 -0.016,-0.222 -0.141,-0.339 -0.309,-0.367 -0.273,-0.045 -0.624,0.159 -0.606,0.522 0.903,17.076 2.679,34.256 6.187,51.011 -0.089,0.034 -0.178,0.084 -0.272,0.097 -1.478,0.355 -6.5,-2.804 -8.033,-3.461 C 22.124,8.857 19.441,7.703 16.766,6.557 11.415,4.25 6.081,1.901 0.611,-0.097 0.344,-0.198 0.154,-0.065 0.088,0.135 0.063,0.09 0.039,0.046 0,0"
             style="fill:#1d1d1b;fill-opacity:1;fill-rule:nonzero;stroke:none"
             id="path304" />
        </g>
        <g
           id="g306"
           transform="translate(663.778,101.78)">
          <path
             d="m 0,0 c -0.774,0.167 -4.598,-1.831 -5.359,-2.131 -2.98,-1.166 -5.961,-2.317 -8.965,-3.449 -6.592,-2.479 -13.222,-4.86 -19.872,-7.159 -0.352,-0.123 -0.816,-0.007 -1.015,0.331 -3.52,5.758 -7.115,11.472 -10.791,17.138 -3.144,4.853 -7.172,14.094 -12.586,16.139 -3.808,1.439 -8.08,-0.86 -11.931,-2.052 -3.173,-0.976 -6.346,-1.953 -9.527,-2.937 -2.136,-0.66 -4.273,-1.306 -6.402,-1.958 -4.171,-1.261 -8.337,-2.501 -12.528,-3.693 -0.718,-23.661 -3.173,-47.351 -4.976,-70.949 2.828,1.359 5.642,2.716 8.471,4.074 9.526,4.583 19.066,9.169 28.592,13.753 0.355,0.172 0.827,-0.043 1.037,-0.336 8.196,-11.323 15.846,-22.998 22.967,-35.024 0.138,0.133 0.309,0.289 0.516,0.521 0.991,1.1 4.031,1.731 5.333,2.269 1.788,0.744 3.577,1.474 5.368,2.189 7.756,3.146 15.522,6.244 23.296,9.349 0.336,0.136 0.823,0 1.007,-0.325 5.76,-9.822 11.767,-19.488 17.972,-29.045 1.669,14.211 3.374,28.418 4.922,42.64 0.513,4.743 1.005,9.491 1.476,14.23 -0.083,0.057 -0.169,0.142 -0.235,0.263 C 10.659,-25.652 5.622,-14.568 1.931,-2.971 1.493,-1.596 1.569,-0.341 0,0 m -29.351,-9.184 c 10.269,3.633 20.439,7.506 30.536,11.572 0.424,0.177 1.001,-0.084 1.131,-0.534 3.809,-12.965 9.114,-25.333 15.901,-37.025 0.241,-0.412 0.112,-0.813 -0.155,-1.085 0.01,-0.035 0.027,-0.061 0.022,-0.098 -0.368,-19.982 -3.729,-40.009 -6.076,-59.843 -0.125,-1.019 -1.568,-0.838 -1.694,0.051 -3.319,5.066 -6.569,10.166 -9.753,15.313 -1.51,2.445 -2.999,4.9 -4.483,7.363 -1.101,1.828 -2.741,6.187 -4.789,6.89 -2.707,0.944 -33.868,-12.909 -33.79,-13.158 0.019,-0.056 -0.019,-0.116 -0.075,-0.12 -0.112,-0.01 -0.226,-0.02 -0.346,-0.023 -0.042,-0.004 -0.086,0.007 -0.137,0.024 -0.357,-0.223 -0.827,-0.206 -1.109,0.266 -3.589,6.064 -7.286,12.061 -11.152,17.951 -1.929,2.943 -3.899,5.868 -5.896,8.775 -1.378,1.982 -3.53,6.693 -5.898,7.249 -2.48,0.595 -7.311,-2.881 -9.635,-3.997 -2.91,-1.395 -5.818,-2.802 -8.73,-4.197 -6.391,-3.078 -12.783,-6.156 -19.181,-9.228 -0.661,-0.319 -1.22,0.398 -1.179,0.991 1.809,24.103 2.882,48.419 5.765,72.415 0.022,0.152 0.091,0.264 0.191,0.336 -0.003,0.198 0.093,0.405 0.355,0.499 11.012,3.726 22.129,7.155 33.22,10.632 2.862,0.886 6.623,3.027 9.516,1.248 2.954,-1.818 4.995,-6.553 6.882,-9.343 3.231,-4.796 6.403,-9.632 9.508,-14.516 1.386,-2.173 2.752,-4.341 4.105,-6.537 2.095,-3.382 3.221,-3.193 6.946,-1.871"
             style="fill:#1d1d1b;fill-opacity:1;fill-rule:nonzero;stroke:none"
             id="path308" />
        </g>
        <g
           id="g310"
           transform="translate(732.0377,355.0226)">
          <path
             d="m 0,0 c 0.12,0.37 -0.08,0.89 -0.59,0.95 -26.28,3.1 -52.94,4 -79.36,2.57 -0.04,0.11 -0.111,0.22 -0.26,0.28 -2.29,0.94 -3.48,2.6 -3.57,4.99 -0.22,1.69 0.49,2.9 2.13,3.63 2.83,2.55 5.52,2.45 8.799,0.2 0.58,-0.39 1.141,0.36 0.891,0.89 -4.08,8.48 -2.511,21 8.649,22.59 11.111,1.58 17.721,-8.41 18.71,-18.19 0.071,-0.74 1.21,-0.76 1.161,0 -0.01,0.16 -0.02,0.33 -0.04,0.49 3.64,10.56 9.259,23.79 22.5,23.59 7.32,-0.12 12.1,-6.46 12.2,-13.43 0.09,-6.41 -3.21,-11.92 -6.66,-17.07 -0.48,-0.71 0.65,-1.34 1.139,-0.66 0.011,0.01 0.021,0.03 0.03,0.04 0.071,-0.19 0.291,-0.34 0.531,-0.2 C -6.2,15.13 2.819,8.42 0.199,-0.06 Z"
             style="fill:#ffffff;fill-opacity:1;fill-rule:nonzero;stroke:none"
             id="path312" />
        </g>
        <g
           id="g314"
           transform="translate(647.6979,367.1325)">
          <path
             d="M 0,0 C 2.06,3.94 6.869,4.18 10.51,2.54 7.229,11.42 9.329,23.07 20.06,25.16 31.1,27.31 39.01,18.15 40.63,8.21 44.18,19.69 52.039,34 66.229,30.87 72.35,29.52 76.109,24.14 76.8,18.11 77.569,11.29 74.399,4.83 70.539,-0.59 78.75,4.55 88.6,-3.32 85.76,-12.56 c -0.24,-0.78 -1.471,-0.44 -1.231,0.34 0.01,0.02 0.01,0.03 0.01,0.05 2.62,8.48 -6.399,15.19 -13.939,10.73 -0.241,-0.14 -0.46,0.01 -0.531,0.2 -0.009,-0.01 -0.019,-0.03 -0.03,-0.04 -0.489,-0.68 -1.619,-0.05 -1.14,0.66 3.451,5.15 6.75,10.66 6.661,17.07 -0.1,6.97 -4.88,13.31 -12.201,13.43 C 50.119,30.08 44.5,16.85 40.859,6.29 40.88,6.13 40.89,5.96 40.899,5.8 40.949,5.04 39.81,5.06 39.739,5.8 38.75,15.58 32.14,25.57 21.029,23.99 9.869,22.4 8.3,9.88 12.38,1.4 12.63,0.87 12.069,0.12 11.489,0.51 8.21,2.76 5.52,2.86 2.689,0.31 1.05,-0.42 0.34,-1.63 0.56,-3.32 c 0.089,-2.39 1.28,-4.05 3.57,-4.99 0.149,-0.06 0.22,-0.17 0.26,-0.28 26.42,1.43 53.08,0.53 79.36,-2.57 0.51,-0.06 0.71,-0.58 0.59,-0.95 -0.07,-0.22 -0.271,-0.38 -0.59,-0.35 C 57.21,-9.69 30.689,-8.69 4.01,-9.34 3.779,-9.35 3.67,-9.19 3.659,-9.01 -0.051,-7.95 -1.811,-3.47 0,0"
             style="fill:#1d1d1b;fill-opacity:1;fill-rule:nonzero;stroke:none"
             id="path316" />
        </g>
        <g
           id="g318"
           transform="translate(769.3463,422.6955)">
          <path
             d="m 0,0 c -0.141,-0.33 0.399,-0.54 0.58,-0.24 0.819,1.38 2.869,1.25 3.92,0.19 1.33,-1.37 0.81,-3.37 0.02,-4.91 -18.6,-3.29 -37.02,-3.93 -55.85,-2.84 0.04,0.18 -0.03,0.37 -0.261,0.41 -4.59,0.84 -7.869,5.5 -4.849,9.8 2.799,3.98 8.169,2.98 10.49,-0.87 0.309,-0.52 1.05,-0.07 0.79,0.46 -0.03,0.08 -0.08,0.14 -0.12,0.21 0.229,0.02 0.439,0.29 0.29,0.51 -4.641,7.03 1.939,17.73 9.679,19.03 10.191,1.72 14.141,-9.43 14.871,-17.38 0.049,-0.56 0.73,-0.68 1,-0.36 0.129,-0.17 0.29,-0.34 0.509,-0.51 0.25,-0.18 0.511,0.21 0.321,0.42 -1.01,1.09 1.82,3.57 2.519,4.05 0.641,0.43 1.301,0.85 1.99,1.21 2.17,1.16 4.571,1.83 7.031,1.53 5.21,-0.63 8.11,-5.57 5.15,-10.1 -0.351,-0.53 0.42,-1.09 0.869,-0.67 0.351,0.33 0.641,0.67 0.891,1.02 L 0.47,0.75 C 0.279,0.54 0.119,0.29 0,0"
             style="fill:#ffffff;fill-opacity:1;fill-rule:nonzero;stroke:none"
             id="path320" />
        </g>
        <g
           id="g322"
           transform="translate(753.2555,430.6657)">
          <path
             d="m 0,0 c -0.699,-0.48 -3.529,-2.96 -2.52,-4.05 0.191,-0.21 -0.07,-0.6 -0.32,-0.42 -0.22,0.17 -0.38,0.34 -0.51,0.51 -0.269,-0.32 -0.95,-0.2 -1,0.36 -0.729,7.95 -4.679,19.1 -14.87,17.38 -7.74,-1.3 -14.32,-12 -9.679,-19.03 0.149,-0.22 -0.061,-0.49 -0.29,-0.51 0.04,-0.07 0.089,-0.13 0.12,-0.21 0.259,-0.53 -0.481,-0.98 -0.79,-0.46 -2.321,3.85 -7.691,4.85 -10.491,0.87 -3.019,-4.3 0.26,-8.96 4.85,-9.8 0.23,-0.04 0.301,-0.23 0.261,-0.41 18.83,-1.09 37.25,-0.45 55.849,2.84 0.79,1.54 1.311,3.54 -0.019,4.91 -1.051,1.06 -3.101,1.19 -3.92,-0.19 -0.181,-0.3 -0.721,-0.09 -0.58,0.24 0.119,0.29 0.279,0.54 0.47,0.75 1.049,1.19 3.04,1.19 4.37,0.26 1.96,-1.37 1.779,-4.09 0.84,-6.1 0.28,-0.33 0.259,-0.91 -0.281,-1.02 -0.12,-0.02 -0.24,-0.04 -0.359,-0.06 -0.191,-0.25 -0.5,-0.26 -0.721,-0.14 -18.34,-3.45 -37.46,-4.48 -55.989,-2.14 -0.2,0.02 -0.311,0.19 -0.32,0.35 -5.691,0.01 -8.811,6.68 -5.55,11.26 2.659,3.76 7.97,3.82 10.97,0.83 -3.491,6.95 2.519,16.52 9.599,18.72 10.601,3.29 16.551,-7.87 17.53,-16.73 0.401,0.79 1.161,1.55 1.8,2.1 2.8,2.41 6.38,4.19 10.151,3.98 5.259,-0.29 10.799,-6.28 7.33,-11.1 -0.25,-0.35 -0.54,-0.69 -0.891,-1.02 -0.449,-0.42 -1.22,0.14 -0.869,0.67 2.96,4.53 0.059,9.47 -5.15,10.1 C 6.561,3.04 4.16,2.37 1.99,1.21 1.301,0.85 0.641,0.43 0,0"
             style="fill:#1d1d1b;fill-opacity:1;fill-rule:nonzero;stroke:none"
             id="path324" />
        </g>
        <g
           id="g326"
           transform="translate(468.4684,402.6354)">
          <path
             d="M 0,0 C 4.087,15.61 20.883,22.518 34.615,13.808 41.218,9.62 44.96,2.307 43.059,-5.502 40.813,-14.724 32.969,-21.666 24.888,-25.969 19.958,-28.593 14.681,-30.368 9.235,-31.525 1.066,-23.482 -3.158,-12.062 0,0 M 124.933,-5.88 C 110.677,-18.307 93.381,-28.098 76.108,-35.692 59.404,-43.037 40.424,-47.106 22.841,-40.28 c -4.594,1.784 -8.783,4.366 -12.328,7.55 11.62,2.644 22.665,8.055 29.57,17.964 C 48.17,-3.16 44.728,10.766 31.656,16.433 19.653,21.636 6.387,17.086 0.84,5.072 -4.897,-7.357 -1.423,-22.256 7.956,-31.784 c -10.686,-2.072 -21.973,-1.813 -32.577,-0.727 -14.998,1.535 -30.952,5.576 -42.956,15.131 -5.945,4.732 -10.626,10.921 -13.002,18.181 -3.047,9.311 -2.052,19.261 -1.658,28.87 0.367,8.94 0.212,17.987 -3.409,26.328 -3.167,7.296 -8.446,13.573 -14.682,18.452 -15.148,11.852 -34.965,14.786 -53.676,15.028 -0.481,0.005 -0.478,-0.728 0,-0.746 21.834,-0.845 45.519,-4.546 60.509,-22.134 7.557,-8.868 10.345,-19.348 10.211,-30.85 -0.117,-10.101 -1.83,-20.336 0,-30.376 6.182,-33.921 49.971,-41.48 78.47,-40.134 4.599,0.218 9.354,0.778 14.041,1.76 0.207,-0.19 0.412,-0.381 0.625,-0.566 15.111,-13.126 36.942,-13.014 55.034,-7.184 11.19,3.605 21.7,9.11 31.913,14.864 10.099,5.69 19.727,12.004 28.283,19.858 0.101,0.092 -0.048,0.237 -0.149,0.149"
             style="fill:#1d1d1b;fill-opacity:1;fill-rule:nonzero;stroke:none"
             id="path328" />
        </g>
        <g
           id="g330"
           transform="translate(473.5074,25.9304)">
          <path
             d="m 0,0 c -0.992,-3.813 -3.243,-7.577 -6.772,-9.55 -3.648,-2.039 -8.749,-1.309 -10.063,3.118 -0.68,2.292 0.286,5.316 1.305,7.347 2.858,5.699 9.164,9.084 15.334,10.756 C 0.925,8.178 1.117,4.291 0,0 m -85.543,19.676 c 0.91,-8.383 -3.766,-18.392 -12.422,-20.775 -6.502,-1.789 -12.019,2.043 -11.476,9.024 0.338,4.356 2.426,8.458 5.253,11.736 4.001,4.64 9.438,7.925 15.122,10.269 1.849,-3.135 3.125,-6.577 3.523,-10.254 m 275.899,-62.418 c -44.246,-8.4 -89.524,2.799 -125.375,29.808 C 49.519,-1.283 33.898,12.308 13.707,13.805 9.213,14.138 4.612,13.83 0.235,12.723 c -5.146,15.408 -24.334,21.142 -39.009,23.298 -15.83,2.327 -34.759,1.808 -50.196,-4.753 -0.874,1.357 -1.852,2.651 -2.913,3.867 -13.679,15.687 -37.799,19.108 -56.335,10.951 -0.122,-0.054 -0.033,-0.271 0.092,-0.218 15.75,6.56 34.493,5.247 48.556,-4.771 3.813,-2.716 7.303,-6.16 9.87,-10.141 -2.951,-1.301 -5.771,-2.825 -8.408,-4.602 -6.075,-4.092 -11.224,-9.988 -12.315,-17.447 -0.999,-6.824 2.782,-12.149 10.018,-11.514 7.511,0.658 13.152,7.19 15.098,14.096 1.834,6.506 0.305,13.106 -3.028,18.739 1.16,0.459 2.324,0.896 3.491,1.281 17.697,5.843 37.722,6.066 55.741,1.617 11.132,-2.749 24.54,-9.627 28.618,-20.591 -3.446,-0.947 -6.739,-2.404 -9.711,-4.465 -4.56,-3.16 -9.277,-9.299 -7.384,-15.234 1.804,-5.659 8.474,-5.336 12.544,-2.365 5.547,4.05 7.262,11.489 6.301,17.979 -0.175,1.185 -0.427,2.32 -0.746,3.409 1.008,0.252 2.01,0.463 2.988,0.627 16.958,2.84 32.779,-5.349 46.112,-14.935 13.278,-9.547 25.605,-19.911 40.341,-27.251 30.933,-15.408 66.666,-20.376 100.585,-13.727 0.449,0.088 0.258,0.77 -0.189,0.685"
             style="fill:#1d1d1b;fill-opacity:1;fill-rule:nonzero;stroke:none"
             id="path332" />
        </g>
        <g
           id="g334"
           transform="translate(57.9137,66.9899)">
          <path
             d="m 0,0 c -1.731,6.425 -3.555,12.844 -5.602,19.178 0.014,0.129 -0.028,0.259 -0.111,0.352 -0.025,0.078 -0.049,0.157 -0.074,0.235 -0.086,0.261 -0.478,0.156 -0.414,-0.115 0.004,-0.014 0.008,-0.029 0.011,-0.044 -9.449,-3.099 -19.02,-5.593 -28.755,-7.622 -0.255,-0.052 -0.144,-0.428 0.106,-0.385 9.788,1.669 19.413,4.111 28.85,7.194 C -4.455,12.408 -2.695,6.065 -0.854,-0.236 -0.695,-0.782 0.149,-0.553 0,0"
             style="fill:#1d1d1b;fill-opacity:1;fill-rule:nonzero;stroke:none"
             id="path336" />
        </g>
        <g
           id="g338"
           transform="translate(122.1481,137.4743)">
          <path
             d="M 0,0 C -6.626,1.793 -13.223,3.69 -19.867,5.418 -20.174,5.498 -20.301,5.035 -19.998,4.943 -13.43,2.945 -6.812,1.118 -0.225,-0.813 0.297,-0.967 0.524,-0.143 0,0"
             style="fill:#1d1d1b;fill-opacity:1;fill-rule:nonzero;stroke:none"
             id="path340" />
        </g>
        <g
           id="g342"
           transform="translate(161.2843,86.2409)">
          <path
             d="m 0,0 c -2.638,6.119 -9.155,8.456 -15.442,7.077 -1.537,-0.337 -3.051,-1.335 -4.553,-1.588 -2.216,-0.374 -2.155,1.195 -3.024,2.949 -1.604,3.242 -3.956,5.805 -6.832,7.955 -0.155,0.116 -0.358,-0.145 -0.209,-0.271 3.896,-3.286 6.471,-7.279 7.78,-12.216 0.072,-0.272 0.388,-0.385 0.627,-0.255 7.09,3.885 17.102,4.645 20.87,-4.109 C -0.553,-0.992 0.229,-0.531 0,0"
             style="fill:#1d1d1b;fill-opacity:1;fill-rule:nonzero;stroke:none"
             id="path344" />
        </g>
        <g
           id="g346"
           transform="translate(194.7028,39.9724)">
          <path
             d="m 0,0 c -5.01,-0.679 -7.321,-3.01 -11.018,-6.022 -1.129,-0.921 -0.683,-1.35 -2.113,-1.207 -0.805,0.082 -3.206,1.872 -4.047,2.214 -1.976,0.805 -4.093,1.284 -6.223,1.423 -9.886,0.653 -18.377,-6.431 -20.169,-16.024 -0.046,-0.245 0.316,-0.354 0.379,-0.105 3.503,13.828 19.258,19.897 30.716,10.819 0.228,-0.181 0.555,-0.184 0.719,0.092 2.663,4.479 6.685,7.186 11.882,7.877 C 0.803,-0.843 0.688,0.093 0,0"
             style="fill:#1d1d1b;fill-opacity:1;fill-rule:nonzero;stroke:none"
             id="path348" />
        </g>
        <g
           id="g350"
           transform="translate(308.4982,46.5798)">
          <path
             d="m 0,0 c -0.636,-4.418 -1.267,-8.836 -1.895,-13.255 -0.135,-0.954 -0.232,-4.931 -0.806,-5.682 -1.44,-1.885 -3.432,-0.508 -5.195,0 -8.274,2.384 -16.502,4.927 -24.684,7.613 -16.056,5.27 -31.927,11.066 -47.645,17.271 -0.123,0.049 -0.173,-0.147 -0.054,-0.197 25.339,-10.602 51.299,-19.46 77.652,-27.173 0.226,-0.066 0.552,0.08 0.589,0.335 1.023,6.939 1.991,13.886 2.967,20.832 C 1.014,0.35 0.088,0.613 0,0"
             style="fill:#1d1d1b;fill-opacity:1;fill-rule:nonzero;stroke:none"
             id="path352" />
        </g>
        <g
           id="g354"
           transform="translate(290.837,117.028)">
          <path
             d="m 0,0 c -17.013,-4.958 -34.016,-10.295 -50.653,-16.404 -0.238,-0.088 -0.143,-0.464 0.107,-0.387 16.949,5.242 33.837,10.66 50.821,15.794 C 0.91,-0.805 0.642,0.187 0,0"
             style="fill:#1d1d1b;fill-opacity:1;fill-rule:nonzero;stroke:none"
             id="path356" />
        </g>
        <g
           id="g358"
           transform="translate(446.5895,134.3493)">
          <path
             d="m 0,0 c -12.146,-0.185 -22.536,-10.02 -23.23,-22.163 -0.024,-0.42 0.608,-0.408 0.647,0 C -21.464,-10.534 -11.69,-1.311 0,-1.005 0.646,-0.988 0.648,0.01 0,0"
             style="fill:#1d1d1b;fill-opacity:1;fill-rule:nonzero;stroke:none"
             id="path360" />
        </g>
        <g
           id="g362"
           transform="translate(496.7321,109.5456)">
          <path
             d="m 0,0 c -0.275,-0.049 -0.213,-0.507 0.066,-0.49 6.701,0.397 12.172,-4.993 11.874,-11.69 -0.029,-0.656 0.924,-0.621 0.998,0 C 13.762,-5.279 6.807,1.206 0,0"
             style="fill:#1d1d1b;fill-opacity:1;fill-rule:nonzero;stroke:none"
             id="path364" />
        </g>
        <g
           id="g366"
           transform="translate(611.7506,18.3698)">
          <path
             d="m 0,0 c -3.326,6.253 -6.647,12.508 -9.984,18.755 -1.517,2.839 -3.034,5.678 -4.55,8.517 -0.593,1.11 -1.564,3.992 -2.961,4.604 -0.894,0.393 -2.905,-0.709 -3.456,-0.92 -2.992,-1.143 -5.917,-2.539 -8.826,-3.875 -6.378,-2.927 -12.646,-6.114 -18.739,-9.597 -0.225,-0.129 -0.027,-0.462 0.203,-0.345 4.85,2.449 9.705,4.882 14.641,7.158 2.32,1.07 4.651,2.124 6.995,3.14 1.718,0.746 3.444,1.475 5.174,2.192 2.528,1.047 2.836,1.864 5.149,-1.185 2.974,-3.919 4.916,-9.305 7.224,-13.661 C -6.417,9.663 -3.695,4.547 -0.978,-0.571 -0.636,-1.215 0.342,-0.644 0,0"
             style="fill:#1d1d1b;fill-opacity:1;fill-rule:nonzero;stroke:none"
             id="path368" />
        </g>
        <g
           id="g370"
           transform="translate(686.8795,52.1423)">
          <path
             d="m 0,0 c -2.257,-14.361 -4.907,-28.743 -6.474,-43.2 -0.019,-0.181 0.281,-0.221 0.318,-0.043 2.943,14.2 4.829,28.665 7.085,42.987 C 1.024,0.351 0.096,0.611 0,0"
             style="fill:#1d1d1b;fill-opacity:1;fill-rule:nonzero;stroke:none"
             id="path372" />
        </g>
        <g
           id="g374"
           transform="translate(716.5182,145.5563)">
          <path
             d="m 0,0 c -18.198,3.65 -28.945,-14.444 -35.192,-28.456 -0.102,-0.227 0.22,-0.428 0.339,-0.198 6.97,13.365 16.625,31.006 34.602,27.745 C 0.34,-1.016 0.598,-0.12 0,0"
             style="fill:#1d1d1b;fill-opacity:1;fill-rule:nonzero;stroke:none"
             id="path376" />
        </g>
        <g
           id="g378"
           transform="translate(661.3854,467.1384)">
          <path
             d="m 0,0 c -23.627,-4.628 -47.221,-10.275 -70.586,-16.076 -0.257,-0.064 -0.146,-0.444 0.108,-0.393 23.623,4.696 47.387,9.624 70.747,15.493 C 0.906,-0.816 0.633,0.125 0,0"
             style="fill:#1d1d1b;fill-opacity:1;fill-rule:nonzero;stroke:none"
             id="path380" />
        </g>
        <g
           id="g382"
           transform="translate(637.3922,400.3952)">
          <path
             d="m 0,0 c -2.05,2.747 -3.048,5.8 -6.532,5.259 -3.134,-0.487 -7.067,-3.216 -9.888,-4.671 -3.245,-1.673 -6.412,-3.48 -9.542,-5.359 -0.24,-0.144 -0.024,-0.515 0.221,-0.376 3.975,2.247 8.016,4.362 12.155,6.295 1.668,0.778 5.825,3.381 7.421,3.24 C -3.898,4.187 -2.12,1.022 -0.828,-0.639 -0.465,-1.106 0.358,-0.48 0,0"
             style="fill:#1d1d1b;fill-opacity:1;fill-rule:nonzero;stroke:none"
             id="path384" />
        </g>
        <g
           id="g386"
           transform="translate(668.5045,396.9196)">
          <path
             d="m 0,0 c -9.689,-2.852 -17.029,-11.429 -17.6,-21.643 -0.013,-0.24 0.394,-0.303 0.429,-0.057 1.37,9.762 7.855,17.926 17.437,20.737 C 0.881,-0.782 0.619,0.182 0,0"
             style="fill:#1d1d1b;fill-opacity:1;fill-rule:nonzero;stroke:none"
             id="path388" />
        </g>
        <g
           id="g390"
           transform="translate(732.3209,449.7565)">
          <path
             d="m 0,0 c -7.092,-2.658 -15.114,-6.824 -16.149,-15.158 -0.038,-0.301 0.471,-0.369 0.531,-0.071 C -13.972,-7.112 -6.47,-3.86 0.371,-0.88 0.866,-0.665 0.512,0.191 0,0"
             style="fill:#1d1d1b;fill-opacity:1;fill-rule:nonzero;stroke:none"
             id="path392" />
        </g>
        <g
           id="g394"
           transform="translate(480.6324,479.4929)">
          <path
             d="m 0,0 c -3.296,-2.391 -6.518,-5.115 -9.317,-8.075 -1.714,-1.811 -3.236,-3.895 -2.151,-6.399 0.114,-0.26 0.54,-0.075 0.456,0.192 -1.098,3.513 3.069,6.327 5.329,8.327 2.037,1.801 4.171,3.468 6.285,5.176 C 1.034,-0.428 0.457,0.331 0,0"
             style="fill:#1d1d1b;fill-opacity:1;fill-rule:nonzero;stroke:none"
             id="path396" />
        </g>
        <g
           id="g398"
           transform="translate(305.9161,466.0905)">
          <path
             d="m 0,0 c -24.935,3.351 -49.537,8.146 -74.367,12.075 -0.226,0.036 -0.33,-0.291 -0.097,-0.353 C -50.259,5.321 -24.843,1.733 0,-1.153 0.741,-1.239 0.721,-0.097 0,0"
             style="fill:#1d1d1b;fill-opacity:1;fill-rule:nonzero;stroke:none"
             id="path400" />
        </g>
        <g
           id="g402"
           transform="translate(165.8351,399.989)">
          <path
             d="m 0,0 c -0.347,0.007 -0.339,-0.509 0,-0.534 7.289,-0.547 13.171,-5.867 14.58,-13.005 0.132,-0.668 1.136,-0.381 1.017,0.281 C 14.255,-5.784 7.558,-0.156 0,0"
             style="fill:#1d1d1b;fill-opacity:1;fill-rule:nonzero;stroke:none"
             id="path404" />
        </g>
        <g
           id="g406"
           transform="translate(164.528,417.7419)">
          <path
             d="m 0,0 c -8.264,3.489 -16.548,6.926 -24.839,10.348 -0.156,0.065 -0.393,-0.04 -0.465,-0.189 -4.265,-8.74 -8.484,-17.497 -12.655,-26.281 -0.111,-0.234 0.232,-0.442 0.352,-0.206 2.046,4.043 4.103,8.081 6.128,12.134 1.159,2.318 2.307,4.64 3.452,6.964 0.898,1.824 1.639,4.895 3.601,5.65 2.871,1.106 9.555,-3.242 12.449,-4.472 C -8.12,2.31 -4.264,0.673 -0.401,-0.951 0.137,-1.177 0.542,-0.229 0,0"
             style="fill:#1d1d1b;fill-opacity:1;fill-rule:nonzero;stroke:none"
             id="path408" />
        </g>
        <g
           id="g410"
           transform="translate(40.8678,388.7985)">
          <path
             d="m 0,0 c -7.006,11.158 -14.573,21.978 -21.996,32.86 -1.858,2.724 -3.716,5.448 -5.574,8.171 -2.264,3.32 -3.012,5.526 -0.364,8.954 4.167,5.394 8.349,10.777 12.496,16.187 0.396,0.518 -0.507,1.223 -0.911,0.703 -4.411,-5.677 -8.824,-11.356 -13.177,-17.078 -3.57,-4.692 -1.114,-6.3 2.087,-10.975 C -18.499,25.764 -9.744,12.53 -0.316,-0.185 -0.179,-0.369 0.128,-0.204 0,0"
             style="fill:#1d1d1b;fill-opacity:1;fill-rule:nonzero;stroke:none"
             id="path412" />
        </g>
        <g
           id="g414"
           transform="translate(318.0089,397.9782)">
          <path
             d="M 0,0 C -0.989,0.957 -2.146,1.538 -3.276,2.293 -4.27,2.957 -5.184,3.764 -6.052,4.584 -7.464,5.918 -9.51,4.246 -8.674,2.56 -7.396,-0.019 -5.068,-2.98 -2.155,-3.702 -0.058,-4.222 1.63,-1.578 0,0"
             style="fill:#1d1d1b;fill-opacity:1;fill-rule:nonzero;stroke:none"
             id="path416" />
        </g>
        <g
           id="g418"
           transform="translate(330.9703,401.8239)">
          <path
             d="m 0,0 c -0.948,0.616 -2.112,0.959 -3.16,1.381 -1.033,0.416 -2.057,0.85 -3.116,1.197 -1.806,0.59 -2.602,-1.913 -1.22,-2.892 1.781,-1.26 3.852,-2.715 5.898,-3.477 C 0.693,-4.645 1.884,-1.223 0,0"
             style="fill:#1d1d1b;fill-opacity:1;fill-rule:nonzero;stroke:none"
             id="path420" />
        </g>
        <g
           id="g422"
           transform="translate(335.2369,389.1496)">
          <path
             d="M 0,0 C -1.088,0.68 -2.409,0.567 -3.588,1.031 -4.612,1.433 -5.464,2.151 -6.308,2.835 -7.931,4.151 -10.219,2.547 -9.235,0.578 -7.774,-2.344 -3.209,-5.215 0,-3.734 1.546,-3.02 1.263,-0.789 0,0"
             style="fill:#1d1d1b;fill-opacity:1;fill-rule:nonzero;stroke:none"
             id="path424" />
        </g>
        <g
           id="g426"
           transform="translate(318.567,384.1403)">
          <path
             d="M 0,0 C -1.793,0.614 -3.076,1.636 -4.246,3.28 -4.74,3.975 -5.526,4.39 -6.39,4.153 -7.119,3.952 -7.893,3.133 -7.784,2.322 -7.34,-0.979 -4.616,-4.035 -1.262,-4.577 0.002,-4.781 1.292,-4.25 1.657,-2.919 2.015,-1.618 1.217,-0.417 0,0"
             style="fill:#1d1d1b;fill-opacity:1;fill-rule:nonzero;stroke:none"
             id="path428" />
        </g>
        <g
           id="g430"
           transform="translate(725.4596,58.1979)">
          <path
             d="m 0,0 c -0.803,0.469 -1.902,0.337 -2.557,-0.33 -1.366,-1.393 -2.286,-3.486 -2.988,-5.296 -0.661,-1.701 1.774,-2.872 2.938,-1.71 1.393,1.392 2.846,3.131 3.576,4.954 C 1.311,-1.529 0.74,-0.434 0,0"
             style="fill:#1d1d1b;fill-opacity:1;fill-rule:nonzero;stroke:none"
             id="path432" />
        </g>
        <g
           id="g434"
           transform="translate(719.0465,69.736)">
          <path
             d="m 0,0 c -2.508,-1.476 -3.06,-5.812 -3.141,-8.469 -0.073,-2.375 3.736,-2.972 4.212,-0.57 0.221,1.11 0.525,2.201 1.038,3.214 0.655,1.292 1.468,2.19 1.62,3.684 C 3.926,-0.218 1.496,0.879 0,0"
             style="fill:#1d1d1b;fill-opacity:1;fill-rule:nonzero;stroke:none"
             id="path436" />
        </g>
        <g
           id="g438"
           transform="translate(737.3756,64.5886)">
          <path
             d="m 0,0 c -1.15,-1.021 -1.457,-2.828 -2.453,-4.047 -0.978,-1.196 -2.188,-2.067 -3.571,-2.738 -2.063,-0.999 -0.61,-4.283 1.544,-3.662 2.044,0.589 3.853,1.581 5.479,2.948 1.546,1.299 3.616,3.494 3.532,5.622 C 4.438,0.49 1.729,1.535 0,0"
             style="fill:#1d1d1b;fill-opacity:1;fill-rule:nonzero;stroke:none"
             id="path440" />
        </g>
        <g
           id="g442"
           transform="translate(731.3502,75.3561)">
          <path
             d="m 0,0 c -0.811,-1.206 -1.373,-2.614 -2.017,-3.916 -0.645,-1.308 -1.397,-2.605 -1.849,-3.994 -0.648,-1.986 2.058,-3.475 3.467,-2.018 1.011,1.048 1.798,2.337 2.648,3.519 0.85,1.18 1.831,2.34 2.517,3.623 C 6.453,0.37 1.975,2.937 0,0"
             style="fill:#1d1d1b;fill-opacity:1;fill-rule:nonzero;stroke:none"
             id="path444" />
        </g>
        <g
           id="g446"
           transform="translate(26.3546,31.3854)">
          <path
             d="M 0,0 C -1.347,1.599 -2.313,2.887 -2.603,5.029 -2.961,7.684 -7.117,6.938 -7.16,4.413 -7.209,1.521 -6.21,-1.999 -3.853,-3.854 -1.12,-6.003 2.3,-2.729 0,0"
             style="fill:#1d1d1b;fill-opacity:1;fill-rule:nonzero;stroke:none"
             id="path448" />
        </g>
        <g
           id="g450"
           transform="translate(40.5871,30.6403)">
          <path
             d="M 0,0 C -0.816,1.407 -1.949,2.549 -3.037,3.747 -4.109,4.928 -5.151,6.138 -6.315,7.229 -7.809,8.63 -10.25,6.85 -9.186,5.014 -8.388,3.637 -7.447,2.352 -6.54,1.044 -5.622,-0.281 -4.771,-1.661 -3.589,-2.77 -1.722,-4.521 1.331,-2.295 0,0"
             style="fill:#1d1d1b;fill-opacity:1;fill-rule:nonzero;stroke:none"
             id="path452" />
        </g>
        <g
           id="g454"
           transform="translate(36.6447,15.9186)">
          <path
             d="m 0,0 c -0.321,1.238 -1.214,2.185 -1.96,3.197 -0.707,0.959 -1.414,1.92 -2.121,2.88 -1.608,2.186 -5.016,0.33 -3.703,-2.165 0.553,-1.05 1.106,-2.1 1.658,-3.15 0.57,-1.084 1.037,-2.366 1.983,-3.173 C -2.315,-3.97 0.653,-2.519 0,0"
             style="fill:#1d1d1b;fill-opacity:1;fill-rule:nonzero;stroke:none"
             id="path456" />
        </g>
        <g
           id="g458"
           transform="translate(15.5011,16.9958)">
          <path
             d="m 0,0 c -1.815,1.69 -2.262,3.547 -2.7,5.893 -0.347,1.857 -3.486,1.901 -3.797,0 -0.549,-3.357 0.938,-6.769 3.166,-9.224 C -1.292,-5.577 2.229,-2.075 0,0"
             style="fill:#1d1d1b;fill-opacity:1;fill-rule:nonzero;stroke:none"
             id="path460" />
        </g>
        <g
           id="g462"
           transform="translate(595.3219,484.0554)">
          <path
             d="m 0,0 c -1.207,-0.836 -2.19,-1.9 -3.229,-2.93 -1.01,-1.004 -1.988,-1.97 -2.845,-3.11 -1.174,-1.561 1.034,-3.288 2.501,-2.502 1.159,0.622 2.179,1.443 3.234,2.225 1.097,0.814 2.296,1.567 3.235,2.562 C 4.683,-1.864 2.318,1.607 0,0"
             style="fill:#1d1d1b;fill-opacity:1;fill-rule:nonzero;stroke:none"
             id="path464" />
        </g>
        <g
           id="g466"
           transform="translate(608.9801,480.1442)">
          <path
             d="m 0,0 c -0.796,-0.918 -1.146,-2.092 -1.904,-3.049 -0.745,-0.94 -1.751,-1.558 -2.55,-2.424 -1.226,-1.328 0.019,-3.112 1.659,-2.85 1.432,0.229 2.844,1.331 3.909,2.255 1.097,0.951 2.475,2.354 2.793,3.794 C 4.376,-0.158 1.629,1.878 0,0"
             style="fill:#1d1d1b;fill-opacity:1;fill-rule:nonzero;stroke:none"
             id="path468" />
        </g>
        <g
           id="g470"
           transform="translate(612.109,495.7116)">
          <path
             d="m 0,0 c -1.676,-0.446 -3.098,-1.767 -4.105,-3.13 -1.012,-1.371 -1.681,-2.92 -1.22,-4.612 0.317,-1.169 1.936,-1.679 2.791,-0.737 0.43,0.474 0.792,0.902 1.1,1.471 0.212,0.39 0.452,0.732 0.758,1.051 0.795,0.825 1.554,1.022 2.545,1.523 C 4.361,-3.173 2.611,0.695 0,0"
             style="fill:#1d1d1b;fill-opacity:1;fill-rule:nonzero;stroke:none"
             id="path472" />
        </g>
        <g
           id="g474"
           transform="translate(16.5265,375.8024)">
          <path
             d="m 0,0 c -0.957,1.152 -2.656,1.612 -3.821,2.563 -1.176,0.961 -2.2,2.158 -3.02,3.432 -1.251,1.945 -3.927,0.261 -3.035,-1.775 0.783,-1.787 1.896,-3.352 3.333,-4.677 1.331,-1.228 3.28,-2.905 5.201,-2.784 C 0.376,-3.132 1.062,-1.279 0,0"
             style="fill:#1d1d1b;fill-opacity:1;fill-rule:nonzero;stroke:none"
             id="path476" />
        </g>
        <g
           id="g478"
           transform="translate(24.6901,383.3249)">
          <path
             d="M 0,0 C -1.229,0.854 -2.461,1.697 -3.711,2.52 -5.329,3.585 -7.1,1.203 -5.756,-0.131 c 1.067,-1.057 2.15,-2.095 3.242,-3.127 0.902,-0.851 2.327,-0.786 3.096,0.21 C 1.378,-2.017 1.02,-0.708 0,0"
             style="fill:#1d1d1b;fill-opacity:1;fill-rule:nonzero;stroke:none"
             id="path480" />
        </g>
        <g
           id="g482"
           transform="translate(15.3283,364.0392)">
          <path
             d="M 0,0 C -0.589,0.76 -1.55,1.337 -2.304,1.938 -3.091,2.565 -3.878,3.193 -4.666,3.82 -6.248,5.082 -8.14,3.191 -6.878,1.608 -6.25,0.821 -5.623,0.034 -4.996,-0.753 -4.392,-1.511 -3.821,-2.466 -3.058,-3.058 -0.845,-4.773 1.717,-2.215 0,0"
             style="fill:#1d1d1b;fill-opacity:1;fill-rule:nonzero;stroke:none"
             id="path484" />
        </g>
        <g
           id="g486"
           transform="translate(31.7003,367.6716)">
          <path
             d="M 0,0 C -0.946,0.879 -2.136,1.504 -3.226,2.189 L -6.359,4.16 c -1.576,0.991 -3.227,-1.241 -1.96,-2.54 1.732,-1.775 3.41,-3.924 5.443,-5.347 C -0.663,-5.276 1.958,-1.819 0,0"
             style="fill:#1d1d1b;fill-opacity:1;fill-rule:nonzero;stroke:none"
             id="path488" />
        </g>
      </g>
    </g>
  </g>
</svg>
